<svg width="294" height="125" viewBox="0 0 294 125" fill="none" xmlns="http://www.w3.org/2000/svg">
<path d="M123.289 54.4125C107.706 53.176 85.4587 55.1451 60.2978 65.8854C39.5978 53.4407 17.3369 52.9793 0 56.3768C2.84148 24.7702 29.4023 0 61.7484 0C93.4214 0 119.547 23.75 123.289 54.4125Z" fill="white"/>
<path d="M123.51 67.4802C111.57 66.3556 93.6734 67.298 72.6676 74.9652C87.5929 87.0702 102.602 92.1359 115.066 93.6611C119.7 85.8735 122.677 76.9843 123.51 67.4802Z" fill="white"/>
<path d="M106.086 105.338C92.5107 102.493 77.3455 96.0103 62.5442 83.4573C60.4416 81.6741 58.3066 80.0737 56.1504 78.6405C37.2457 66.0754 16.0245 66.0575 0.20913 69.5963C0.919772 75.4134 2.43607 80.9816 4.64304 86.1859C6.64916 85.7762 8.7381 85.4207 10.8859 85.1417C20.6129 83.8778 32.1134 84.1072 42.7299 88.4923C55.4366 93.7407 66.4962 103.678 74.9678 111.29L75.1629 111.465C78.8298 114.76 81.9258 117.542 84.6357 119.639C92.7747 116.404 100.066 111.496 106.086 105.338Z" fill="white"/>
<path d="M69.1767 123.56C68.3986 122.865 67.6178 122.163 66.8368 121.461L66.279 120.96C57.5007 113.072 48.0603 104.759 37.767 100.508C29.9834 97.2927 20.9839 96.9389 12.561 98.0333C12.1726 98.0838 11.7867 98.1371 11.4034 98.1933C22.6599 113.824 41.0158 124 61.7484 124C64.2623 124 66.7411 123.85 69.1767 123.56Z" fill="white"/>
<path d="M144.236 107.675V95.0566H149.031C149.704 95.5613 150.276 96.3689 150.747 97.4792C151.252 98.5896 151.504 99.7673 151.504 101.012C151.504 103.94 150.579 106.16 148.728 107.675H144.236ZM137.423 89V124.33H144.236V113.63H150.343C153.035 112.654 155.071 110.989 156.45 108.633C157.83 106.278 158.52 103.721 158.52 100.962C158.52 98.169 157.847 95.7296 156.501 93.6434C155.189 91.5572 153.389 90.0094 151.1 89H137.423ZM175.64 89H162.215V124.33H169.029V111.46H171.704L175.994 124.33H183.06L177.962 109.845C181.529 107.725 183.312 104.411 183.312 99.9019C183.312 97.1428 182.555 94.8211 181.041 92.9368C179.56 91.0189 177.76 89.7066 175.64 89ZM169.029 105.807V95.0566H173.672C174.244 95.1912 174.816 95.78 175.388 96.8231C175.994 97.8662 176.297 99.0775 176.297 100.457C176.297 101.837 175.943 103.048 175.237 104.091C174.564 105.1 173.941 105.672 173.369 105.807H169.029ZM202.919 89C205.274 90.9179 207.024 93.492 208.168 96.7222C209.312 99.9524 209.884 103.283 209.884 106.716C209.884 110.114 209.329 113.344 208.218 116.406C207.108 119.468 205.341 122.109 202.919 124.33H192.522C190.099 122.109 188.332 119.468 187.222 116.406C186.112 113.344 185.556 110.114 185.556 106.716C185.556 103.283 186.128 99.9524 187.273 96.7222C188.417 93.492 190.166 90.9179 192.522 89H202.919ZM195.903 118.475H199.537C200.378 117.5 201.085 115.918 201.657 113.731C202.263 111.51 202.565 109.172 202.565 106.716C202.565 104.259 202.279 101.954 201.707 99.8009C201.135 97.6138 200.429 96.0324 199.588 95.0566H195.903C195.062 96.0324 194.339 97.6138 193.733 99.8009C193.161 101.954 192.875 104.259 192.875 106.716C192.875 109.172 193.161 111.51 193.733 113.731C194.339 115.918 195.062 117.5 195.903 118.475ZM215.876 118.475H210.677V124.33H218.652C221.209 122.21 222.807 119.653 223.447 116.658C223.783 115.077 223.985 113.664 224.052 112.419C224.153 111.174 224.204 109.424 224.204 107.17V89H217.289V109.542C217.289 112.671 217.205 114.757 217.037 115.8C216.868 116.81 216.481 117.702 215.876 118.475ZM228.755 124.33V89H246.874V95.0566H235.669V103.485H245.663V109.34H235.669V118.475H247.076V124.33H228.755ZM269.166 118.475H260.283C259.374 117.432 258.583 115.75 257.91 113.428C257.271 111.107 256.951 108.886 256.951 106.766C256.951 104.646 257.271 102.425 257.91 100.104C258.583 97.7821 259.374 96.0997 260.283 95.0566H269.166V89H257.204C254.68 91.0525 252.779 93.6434 251.5 96.7726C250.222 99.9019 249.583 103.166 249.583 106.564C249.583 109.929 250.155 113.21 251.299 116.406C252.443 119.603 254.125 122.244 256.346 124.33H269.166V118.475ZM278.571 95.0566H270.95V89H293.057V95.0566H285.436V124.33H278.571V95.0566Z" fill="white"/>
<path d="M144.236 107.675V95.0566H149.031C149.704 95.5613 150.276 96.3689 150.747 97.4792C151.252 98.5896 151.504 99.7673 151.504 101.012C151.504 103.94 150.579 106.16 148.728 107.675H144.236ZM137.423 89V124.33H144.236V113.63H150.343C153.035 112.654 155.071 110.989 156.45 108.633C157.83 106.278 158.52 103.721 158.52 100.962C158.52 98.169 157.847 95.7296 156.501 93.6434C155.189 91.5572 153.389 90.0094 151.1 89H137.423ZM175.64 89H162.215V124.33H169.029V111.46H171.704L175.994 124.33H183.06L177.962 109.845C181.529 107.725 183.312 104.411 183.312 99.9019C183.312 97.1428 182.555 94.8211 181.041 92.9368C179.56 91.0189 177.76 89.7066 175.64 89ZM169.029 105.807V95.0566H173.672C174.244 95.1912 174.816 95.78 175.388 96.8231C175.994 97.8662 176.297 99.0775 176.297 100.457C176.297 101.837 175.943 103.048 175.237 104.091C174.564 105.1 173.941 105.672 173.369 105.807H169.029ZM202.919 89C205.274 90.9179 207.024 93.492 208.168 96.7222C209.312 99.9524 209.884 103.283 209.884 106.716C209.884 110.114 209.329 113.344 208.218 116.406C207.108 119.468 205.341 122.109 202.919 124.33H192.522C190.099 122.109 188.332 119.468 187.222 116.406C186.112 113.344 185.556 110.114 185.556 106.716C185.556 103.283 186.128 99.9524 187.273 96.7222C188.417 93.492 190.166 90.9179 192.522 89H202.919ZM195.903 118.475H199.537C200.378 117.5 201.085 115.918 201.657 113.731C202.263 111.51 202.565 109.172 202.565 106.716C202.565 104.259 202.279 101.954 201.707 99.8009C201.135 97.6138 200.429 96.0324 199.588 95.0566H195.903C195.062 96.0324 194.339 97.6138 193.733 99.8009C193.161 101.954 192.875 104.259 192.875 106.716C192.875 109.172 193.161 111.51 193.733 113.731C194.339 115.918 195.062 117.5 195.903 118.475ZM215.876 118.475H210.677V124.33H218.652C221.209 122.21 222.807 119.653 223.447 116.658C223.783 115.077 223.985 113.664 224.052 112.419C224.153 111.174 224.204 109.424 224.204 107.17V89H217.289V109.542C217.289 112.671 217.205 114.757 217.037 115.8C216.868 116.81 216.481 117.702 215.876 118.475ZM228.755 124.33V89H246.874V95.0566H235.669V103.485H245.663V109.34H235.669V118.475H247.076V124.33H228.755ZM269.166 118.475H260.283C259.374 117.432 258.583 115.75 257.91 113.428C257.271 111.107 256.951 108.886 256.951 106.766C256.951 104.646 257.271 102.425 257.91 100.104C258.583 97.7821 259.374 96.0997 260.283 95.0566H269.166V89H257.204C254.68 91.0525 252.779 93.6434 251.5 96.7726C250.222 99.9019 249.583 103.166 249.583 106.564C249.583 109.929 250.155 113.21 251.299 116.406C252.443 119.603 254.125 122.244 256.346 124.33H269.166V118.475ZM278.571 95.0566H270.95V89H293.057V95.0566H285.436V124.33H278.571V95.0566Z" stroke="black"/>
<path d="M165.187 84L163.426 70.68H150.171L148.409 84H137L148.325 0H165.691L176.429 84H165.187ZM156.631 15.6L153.359 43.56L151.513 57.84H162L160.07 43.56L156.798 15.6H156.631ZM181.314 0H203.629C207.153 1.68 210.145 4.8 212.606 9.36C215.122 13.84 216.381 19.36 216.381 25.92C216.381 36.64 213.416 44.52 207.488 49.56L215.961 84H204.216L197.086 53.4H192.639V84H181.314V0ZM192.639 14.4V39.96H199.854C200.805 39.64 201.839 38.28 202.958 35.88C204.133 33.4 204.72 30.52 204.72 27.24C204.72 23.96 204.216 21.08 203.21 18.6C202.259 16.12 201.308 14.72 200.357 14.4H192.639ZM222.44 0V84H251.383V70.08H233.933V0H222.44ZM257.095 84V0H281.004C283.744 1.44 286.177 3.96 288.302 7.56C290.427 11.16 291.49 15.52 291.49 20.64C291.49 29.68 289.421 36 285.282 39.6V40.08C290.427 44.16 293 50.56 293 59.28C293 69.28 289.449 77.52 282.346 84H257.095ZM268.504 34.68H276.809C279.27 32.52 280.5 29.24 280.5 24.84C280.5 20.44 279.354 16.96 277.061 14.4H268.504V34.68ZM268.504 70.08H277.145C278.151 69.04 279.046 67.4 279.829 65.16C280.668 62.92 281.087 60.68 281.087 58.44C281.087 56.2 280.752 54.16 280.081 52.32C279.41 50.48 278.571 49.12 277.564 48.24H268.504V70.08Z" fill="white"/>
<path d="M165.187 84L163.426 70.68H150.171L148.409 84H137L148.325 0H165.691L176.429 84H165.187ZM156.631 15.6L153.359 43.56L151.513 57.84H162L160.07 43.56L156.798 15.6H156.631ZM181.314 0H203.629C207.153 1.68 210.145 4.8 212.606 9.36C215.122 13.84 216.381 19.36 216.381 25.92C216.381 36.64 213.416 44.52 207.488 49.56L215.961 84H204.216L197.086 53.4H192.639V84H181.314V0ZM192.639 14.4V39.96H199.854C200.805 39.64 201.839 38.28 202.958 35.88C204.133 33.4 204.72 30.52 204.72 27.24C204.72 23.96 204.216 21.08 203.21 18.6C202.259 16.12 201.308 14.72 200.357 14.4H192.639ZM222.44 0V84H251.383V70.08H233.933V0H222.44ZM257.095 84V0H281.004C283.744 1.44 286.177 3.96 288.302 7.56C290.427 11.16 291.49 15.52 291.49 20.64C291.49 29.68 289.421 36 285.282 39.6V40.08C290.427 44.16 293 50.56 293 59.28C293 69.28 289.449 77.52 282.346 84H257.095ZM268.504 34.68H276.809C279.27 32.52 280.5 29.24 280.5 24.84C280.5 20.44 279.354 16.96 277.061 14.4H268.504V34.68ZM268.504 70.08H277.145C278.151 69.04 279.046 67.4 279.829 65.16C280.668 62.92 281.087 60.68 281.087 58.44C281.087 56.2 280.752 54.16 280.081 52.32C279.41 50.48 278.571 49.12 277.564 48.24H268.504V70.08Z" stroke="black"/>
</svg>
