<svg width="132" height="132" viewBox="0 0 132 132" fill="none" xmlns="http://www.w3.org/2000/svg">
<g filter="url(#filter0_d_31_39)">
<path d="M127.289 54.4125C111.706 53.176 89.4587 55.1451 64.2978 65.8854C43.5978 53.4407 21.3369 52.9793 4 56.3768C6.84148 24.7702 33.4023 0 65.7484 0C97.4214 0 123.547 23.75 127.289 54.4125Z" fill="#F7C35F"/>
<path d="M127.51 67.4802C115.57 66.3556 97.6734 67.298 76.6676 74.9652C91.5929 87.0702 106.602 92.1359 119.066 93.6611C123.7 85.8735 126.677 76.9843 127.51 67.4802Z" fill="#0098C8"/>
<path d="M110.086 105.338C96.5107 102.493 81.3455 96.0103 66.5442 83.4573C64.4416 81.6741 62.3066 80.0737 60.1504 78.6405C41.2457 66.0754 20.0245 66.0575 4.20913 69.5963C4.91977 75.4134 6.43607 80.9816 8.64304 86.1859C10.6492 85.7762 12.7381 85.4207 14.8859 85.1417C24.6129 83.8778 36.1134 84.1072 46.7299 88.4923C59.4366 93.7407 70.4962 103.678 78.9678 111.29L79.1629 111.465C82.8298 114.76 85.9258 117.542 88.6357 119.639C96.7747 116.404 104.066 111.496 110.086 105.338Z" fill="#FF714E"/>
<path d="M73.1767 123.56C72.3986 122.865 71.6178 122.163 70.8368 121.461L70.279 120.96C61.5007 113.072 52.0603 104.759 41.767 100.508C33.9834 97.2927 24.9839 96.9389 16.561 98.0333C16.1726 98.0838 15.7867 98.1371 15.4034 98.1933C26.6599 113.824 45.0158 124 65.7484 124C68.2623 124 70.7411 123.85 73.1767 123.56Z" fill="#5B2815"/>
</g>
<defs>
<filter id="filter0_d_31_39" x="0" y="0" width="131.51" height="132" filterUnits="userSpaceOnUse" color-interpolation-filters="sRGB">
<feFlood flood-opacity="0" result="BackgroundImageFix"/>
<feColorMatrix in="SourceAlpha" type="matrix" values="0 0 0 0 0 0 0 0 0 0 0 0 0 0 0 0 0 0 127 0" result="hardAlpha"/>
<feOffset dy="4"/>
<feGaussianBlur stdDeviation="2"/>
<feComposite in2="hardAlpha" operator="out"/>
<feColorMatrix type="matrix" values="0 0 0 0 0 0 0 0 0 0 0 0 0 0 0 0 0 0 0.25 0"/>
<feBlend mode="normal" in2="BackgroundImageFix" result="effect1_dropShadow_31_39"/>
<feBlend mode="normal" in="SourceGraphic" in2="effect1_dropShadow_31_39" result="shape"/>
</filter>
</defs>
</svg>
