<?xml version="1.0" encoding="UTF-8"?><svg id="a" xmlns="http://www.w3.org/2000/svg" viewBox="0 0 604 328.91"><defs><style>.b{fill:#fff;}</style></defs><path class="b" d="M601.03,288.13c-.62,.88-1.36,1.63-2.12,1.99-8.09,3.78-16.43,7.03-24.7,10.4-.82,.34-1.81,.28-2.79,.41,.21-4.31,2.15-6.73,5.88-8.2,5.7-2.24,11.25-4.87,16.84-7.37,1.6-.72,3.16-1.54,4.74-2.31-.06-.26-.12-.52-.18-.79-.23-.13-.44-.28-.64-.44-1.39,.23-2.82,.34-4.1,.85-7.22,2.88-14.44,5.79-21.56,8.92-3.12,1.37-4.98,.79-6.46-3.33,9.49-4.41,18.93-8.81,28.38-13.2l-.3-1.05h-4.09c-8.28,3.7-16.49,7.54-24.88,10.96-1.37,.56-3.47-.68-5.24-2.13,9.69-4.77,17.29-15.54,30.07-8.91,2.15-1.5,3.87-2.91,1.8-5.94-.51-.74,.47-3.6,1.44-4.04,1.68-.77,2.94-1.72,3.85-2.95,.45-1.07,.98-2.11,1.41-3.18,.07-.31,.14-.62,.19-.95,.04-.27,.18-.52,.39-.76v-.02c.32-1.22,.46-2.48,.51-3.75-.25,.3-.52,.6-.81,.94-1.34-2.09-2.8-3.36-2.64-4.38,.18-1.19,1.99-3.16,2.73-3.02,.22,.04,.43,.13,.64,.23-.01-.46-.02-.91-.04-1.37-1.45,.36-3.06,.06-4.45-1.28-.51-.49-1-1.05-1.46-1.65-.2-.18-.39-.36-.55-.53-1.81-2.04-3.32-4.34-5.68-7.52-2.46,4.98-4.27,8.94-6.37,12.74-.79,1.44-2.01,3.02-3.43,3.69-8.85,4.18-17.76,8.25-26.82,11.97-1.41,.58-3.65-.83-5.5-1.32,.68-1.58,.93-4.01,2.1-4.6,9.5-4.76,19.17-9.16,28.78-13.69,1.55-.73,3.06-1.54,4.59-2.32-.28-.65-.55-1.3-.83-1.94-11.56,4.77-23.11,9.54-34.68,14.32,1.59-7.36,6.06-11.69,13.11-14.11,7.65-2.63,15.06-5.97,22.22-9.97-12.1,2.81-23.63,7.26-35.07,12.66-1.9-4.74-.91-7.83,3.42-9.62,9.21-3.81,18.43-7.59,27.65-11.39,1.5-.62,2.97-1.3,4.46-1.95-.07-.42-.13-.84-.2-1.27-1.54,.2-3.17,.13-4.6,.63-7.21,2.55-14.52,4.9-21.48,8.02-4.6,2.06-7.42,1.73-9.32-4.39,11.75-4.65,23.64-9.36,35.54-14.06-.17-.61-.35-1.21-.52-1.82-3.66,1.2-7.32,2.37-10.97,3.6-4.09,1.38-8.19,2.76-12.25,4.23-3.85,1.39-7.67,2.9-12.53,4.75,.07-6.18,2.8-9.14,7.08-10.79,8.37-3.23,16.82-6.25,25.22-9.41,1.53-.57,2.96-1.39,4.44-2.09-.18-.48-.37-.96-.55-1.43-2.13,.58-4.31,1.04-6.39,1.75-7.87,2.67-15.65,5.6-23.6,8-1.71,.52-5.01-.12-5.75-1.33-1.65-2.71,.54-4.55,3.16-5.5,9.52-3.48,19.06-6.91,28.58-10.39,1.57-.57,3.07-1.34,4.6-2.02-.21-.6-.42-1.19-.63-1.79-4.07,1.26-8.14,2.51-12.2,3.77-.1-.31-.2-.62-.3-.92,11.13-3.94,22.26-7.89,33.39-11.83-.16,.48-.25,.96-.3,1.45,.59-.54,1.27-.98,2.15-1.21,.2-.05,.41-.09,.61-.12,0-1.93,0-3.85,0-5.78-.53,.08-1.07,.07-1.59-.01-.52,1.82-1.81,2.9-4.16,3.65-9.79,3.15-19.54,6.46-29.19,10.03-6.95,2.57-13.71,5.63-21.55,8.89-1.14-5.03-2.34-9.33-3.03-13.72-.43-2.76-.27-5.65-.04-8.46,.29-3.5-1.26-5.51-4.26-7.06-12.39-6.43-25.24-7.94-38.63-3.85-13.12,4.01-13.55,4.77-13.7,18.21-.05,4.44,1.53,9.36-2.85,13.01-.38,.32,.09,2.2,.65,3.02,3.53,5.18,3.83,10.18-.16,15.32-.58,.75-.59,2.89,.02,3.46,3.95,3.76,2.26,8.16,2.22,12.87-4.78-4.63-9.23-8.75-13.47-13.09-15.34-15.69-30.51-31.55-46.02-47.07-2.48-2.49-6.33-5.09-9.57-5.12-39.76-.37-79.53-.31-119.29-.14-2.01,0-4.56,1.66-5.93,3.32-4.32,5.25-7.97,11.05-12.37,16.22-1.47,1.73-4.37,3.05-6.67,3.14-8.8,.36-17.64-.16-26.44,.22-18.28,.78-36.45,1.95-53.64,9.51-9.39,4.12-19.16,7.97-29.15,10-19.95,4.06-36.9,13.64-53.2,25.15-13.85,9.78-28.04,19.08-42.29,28.27-2.15,1.39-5.93,.26-8.06,1.66-2.4,1.56-3.29,5.44-5.7,6.97-12.08,7.66-24.34,15.08-36.76,22.18-6.13,3.5-12.75,6.14-19.15,9.16v1.99c18.2-9.24,36.4-18.47,55.02-27.92-.74,1.77-1.57,3.79-2.05,4.95v12.14c-2.3-.29-4.03-.51-5.77-.74-.14,.28-.27,.57-.41,.85,3.78,2.24,7.69,4.28,11.26,6.8,1.46,1.03,3.38,3.49,3.01,4.58-.86,2.53-3.15,4.1-6.34,2.86-1.63-.63-3.41-.86-5.12-1.27-.23,.46-.46,.92-.69,1.38,7.56,4.52,15.11,9.03,22.67,13.55-.2,.44-.39,.88-.59,1.32-12.08-3.59-24.16-7.18-36.25-10.78-.24,.68-.47,1.37-.71,2.05,8.59,3.86,17.17,7.72,25.76,11.58-.11,.39-.23,.78-.34,1.17-13.16-2.88-26.32-5.75-39.48-8.63-.19,.69-.39,1.38-.58,2.07,10.4,3.51,20.8,7.02,31.2,10.53-.07,.27-.15,.54-.22,.81-15.04-2.41-30.08-4.81-45.11-7.22-.15,.73-.31,1.47-.46,2.2,12.1,2.88,24.19,5.75,37.09,8.82-14.56,2.21-28.32-6.43-41.89,.77,1.5,.33,3,.96,4.49,.96,199.84,.04,399.67,.04,599.51,.04v-39.14c-1.13-.2-2.2-.75-2.97-1.63Zm-34.19,6.56c-4.98,3.24-12.16,2.02-16.05-1.97-3.18-3.26-7.09-5.81-10.68-8.67-.44-1.73-.89-3.46-1.68-6.57,4.43,3.88,8,7.01,11.57,10.13,.36-.29,.73-.58,1.09-.87-1.64-2.38-3.28-4.76-4.92-7.14,.15-.2,.31-.39,.46-.59,.96,.66,1.87,1.41,2.88,1.97,3.12,1.71,3.52,7.24,9.54,5.57,1.7-.48,5.14,5.26,7.78,8.14Zm-24.39-27.43c-8.23,7.07-49.31,6.4-54.75-1.29,18.29,7.56,36.66,6.53,54.75,1.29Zm-51.09-3.11v-10.18l1.16,.11v10c-.39,.02-.77,.04-1.16,.07Zm15.14-15.73l-.19,.49c-1.58-.22-3.16-.38-4.72-.66-5.73-1.05-7.88-4.66-5.89-10.28,.35-.99,1.8-2.27,2.73-2.26,5.3,.06,10.59,.58,15.89,.73,5.06,.15,10.14,.03,15.2,.03,.01,.42,.03,.84,.04,1.26h-23.83c-.04,.54-.08,1.08-.12,1.62,1.81,.37,3.61,1,5.42,1.05,5.48,.16,10.97-.08,16.44,.23,1.41,.08,2.74,1.59,4.1,2.45-1.34,.94-2.62,2.6-4.02,2.72-7.56,.61-15.16,.84-24.12,1.27,1.37,.6,2.22,.98,3.07,1.35Zm17.57-22.73h5.44c.13-.21,.54-.88,1.03-1.7,.57,.77,1.13,1.43,1.09,1.47-1.23,1.19-2.49,3.26-3.8,3.3-9.25,.28-18.52,.16-27.78,.14-3.8-.01-5.39-1.97-4.94-5.72,.23-1.96,.32-3.94,.52-6.54,9.53,.44,18.45,.85,27.37,1.27,.03,.57,.06,1.14,.08,1.7-5.3,3.56-11.75,.49-17.99,2.06,6.05,4.63,14.34-1.51,18.99,4.01Zm-7.04,7.78c-.02,.27-.04,.54-.06,.81-7.82-.62-15.64-1.25-23.45-1.87,.03-.48,.06-.97,.09-1.45,7.81,.84,15.62,1.67,23.43,2.51Zm-.04,32.51c4.3,.18,8.61,.04,13.99,.04-1.4,.76-1.97,1.33-2.53,1.33-9.6-.07-19.22,.07-28.8-.46-4.14-.23-5.6-4.41-4.15-9.73,1.14-4.18,4.1-2.07,6.52-1.86,8.21,.72,16.43,1.36,24.62,2.22,1.51,.16,2.92,1.25,4.38,1.92-1.48,1.15-2.88,3.15-4.46,3.29-7.19,.67-14.43,.82-21.65,1.16-.07,.35-.14,.7-.21,1.05,4.09,.36,8.18,.86,12.28,1.04Zm66.29-12.01c.59-1.65,3.7-3.13,.16-4.96-.06-.03,.46-1.97,1.07-2.27,.56-.27,1.91,.24,2.4,.83,1.73,2.04-1.3,9.97-4.75,11.24,.42-1.86,.61-3.41,1.12-4.84Zm1.82,10.84l-.06,1.55c-1.54,.79-3.05,1.64-4.63,2.35-6.78,3.04-13.67,5.85-20.33,9.12-3.23,1.58-5.28,1.14-7.54-3.07,8.71-4.09,17.1-8.31,25.77-11.86,1.71-.7,4.49,1.21,6.77,1.91Zm-38.05,3.59c10.4-5.7,21.02-11.02,32.15-16.76,.83,4.55,1.02,7.28-2.81,9.02-9.8,4.45-19.48,9.16-29.23,13.74-.55,.26-1.24,.24-1.86,.36-.45-.34-.9-.68-1.36-1.01,1.01-1.82,1.56-4.49,3.11-5.34Zm-4.11-19.09c-5.16,1.13-10.32,2.26-15.48,3.39-.06-.25-.11-.49-.17-.74,5.15-1.28,10.3-2.57,15.45-3.85,.07,.4,.14,.8,.2,1.2Zm-.27-18.75c-6.03,1.03-12.21,2.09-18.39,3.14l-.02-.33c6.11-1.5,12.21-3,18.32-4.5,0,.15,.01,.31,.08,1.69Zm-51.57-58.62c.17-7.79,6.39-12,13.99-9.95,3.45,.93,7.24,.57,10.77,.78-.18,.61-.47,1.6-.95,3.27h-10.79c5.03,4.45,24.49,2.39,28.91-2.77-4.03,.75-7.82,1.46-11.98,2.23,2.82-6.52,10.89-6.31,17.9,.05-4.71,4.66-10.86,4.06-16.57,4.6-5.84,.55-11.71,.66-17.57,.97-.06,.26-.11,.52-.17,.78,2.8,.34,5.59,.72,8.4,.99,2.47,.23,5.03,.03,7.41,.62,1.24,.31,2.15,1.92,3.21,2.94-1.07,.85-2.1,2.38-3.21,2.44-5.1,.26-10.23,.12-15.61,1.28,2.2,.47,4.38,1.15,6.61,1.34,2.97,.26,6-.09,8.95,.28,1.17,.15,2.18,1.53,3.27,2.35-.88,1.02-1.67,2.81-2.66,2.93-4.08,.48-8.22,.47-12.34,.58-1.23,.03-2.46-.14-3.69-.22l-.16,1.49c5.25,.49,10.5,.98,15.75,1.46l-.11,1.62c-7.01-.45-14.05-.63-21-1.55-1.49-.2-3.46-2.89-3.76-4.68-.6-3.55-.13-7.27-.23-10.92-.05-1.71-.38-3.41-.59-5.11l-1.79-.03v17.93l-1.95,.05c-.19-1.61-.56-3.22-.53-4.82,.07-3.64,.43-7.28,.51-10.92Zm-3.55,17.51c8.51,4.43,17.62,5.3,26.95,5.22,9.47-.08,18.9-.21,27.86-3.84-10.77,7.2-47.41,6.4-54.81-1.38Zm35.52,18.07c-.04,.94-.08,1.88-.12,2.82-5.26,.15-10.51,.35-15.77,.43-1.31,.02-2.62-.4-3.94-.57-7.79-.98-8.29-1.67-7.81-9.34,.16-2.48,.89-3.6,3.57-3.41,6.77,.48,13.58,.62,20.33,1.26,1.31,.12,2.47,1.92,3.69,2.95-1.14,.92-2.2,2.5-3.43,2.64-3.41,.38-6.89,.2-10.34,.16-1.55-.02-3.09-.21-4.63-.32-.05,.54-.1,1.08-.16,1.61,6.2,.59,12.4,1.18,18.59,1.78Zm-30.92-10.58v9.42l-1.11,.07v-9.44l1.11-.04Zm-4.59,11.41c8.33,4.8,17.42,5.66,26.66,5.19,9.04-.47,18.06-1.29,25.6-1.84-11.09,5.78-46.23,4.36-52.27-3.34Zm3.68,17.18v-9.59l1.19,.03v9.53l-1.19,.02Zm.96,9.35v9.52c-.39,0-.78,0-1.18,0v-9.5l1.18-.02Zm27.91,17.65c-11.11,.08-22.46,1.64-32.46-5.26,10.3,5,21.44,4.73,32.46,5.26Zm-43.78-28.04c2.14,2.53,3.66,4.33,5.59,6.61-1.53,1.34-3.29,2.89-5.59,4.91v-11.52Zm11.36,8.99c1.4,9.46-7.06,10.56-10.97,15.59-2.72-7.9-1.47-7.02,10.97-15.59Zm-.67,25.42c1.31,4.92-3.63,12.58-9.59,14.87-2.64-4.39-1-6.81,9.59-14.87Zm-4.63-9.8c1.01-.45,3.09,.38,4.01,1.3,.61,.6,.4,2.59-.11,3.62-.54,1.09-1.86,1.8-2.87,2.64-1.98,1.64-3.99,3.24-6.15,5-1.54-6.2,.1-10.34,5.12-12.55Zm.35,38.66c.41-.37,.83-.73,1.24-1.1-1.77-2.49-3.54-4.97-5.32-7.46,.24-.22,.49-.44,.73-.66,3.38,3.07,6.76,6.14,10.14,9.21l1.19-1.12c-1.74-2.4-3.48-4.79-5.22-7.19l.71-.74c3.3,2.97,6.6,5.93,9.9,8.9,.4-.3,.79-.61,1.19-.91-1.63-2.36-3.26-4.72-4.89-7.08,.2-.24,.4-.47,.6-.71,3.35,2.93,6.71,5.86,10.06,8.79,.38-.36,.75-.72,1.13-1.08-1.83-2.48-3.65-4.97-5.48-7.45l.73-.69c3.41,3.1,6.83,6.2,10.24,9.3,.4-.35,.8-.7,1.21-1.05-1.76-2.49-3.53-4.98-5.29-7.47l.69-.7c3.38,3.09,6.76,6.18,10.15,9.27l1.27-1.13c-1.77-2.36-3.53-4.72-5.3-7.08,.23-.28,.47-.55,.7-.83,3.35,2.96,6.69,5.91,10.04,8.87,.38-.33,.75-.66,1.13-.99-1.69-2.36-3.38-4.73-5.07-7.09,.23-.25,.47-.49,.7-.74,3.3,2.95,6.61,5.9,9.91,8.86,.39-.32,.79-.64,1.18-.97-1.78-2.49-3.57-4.98-5.35-7.48l.63-.72c3.4,3.04,6.8,6.07,10.2,9.11,.39-.3,.79-.61,1.18-.91-1.71-2.48-3.42-4.95-5.13-7.43,.22-.31,.45-.62,.67-.93,1.12,.76,2.3,1.45,3.33,2.31,1.24,1.04,2.36,2.22,3.53,3.35,2.59,3.56,5.19,7.13,8.21,11.28-2.01,.34-3.24,.73-4.47,.73-17.8-.05-35.6-.09-53.39-.34-1.77-.02-4-.91-5.21-2.17-4.13-4.3-7.89-8.94-11.43-13.9,2.99,2.71,5.97,5.42,8.96,8.14Zm-84.71-120.98c.17,.72,.35,1.44,.52,2.16-3,.47-6,.94-10.07,1.58,2.89-5.3,6.51-3.43,9.55-3.74Zm-13.6-.4c.18,.79,.36,1.59,.54,2.38l-7.51,1.58c-.17-.77-.35-1.55-.52-2.32,2.5-.55,5-1.09,7.49-1.64Zm-4.5,5.96c-4.61,8.39-7.44,9.33-14.92,8.22,3.86-5.4,7.86-9.46,14.92-8.22Zm-8.69-5.95c-1.35,5.09-4.91,2.9-7.52,3.75-.22-.72-.44-1.43-.66-2.15,2.72-.53,5.45-1.07,8.17-1.6Zm-4.26,6.7c-4.6,7.82-6.73,8.78-13.94,6.54,4.06-6.68,6.6-7.92,13.94-6.54Zm-8.57-6.69c.18,.73,.36,1.45,.55,2.18-2.5,.61-5,1.22-7.51,1.83-.21-.84-.42-1.67-.63-2.51,2.53-.5,5.06-1,7.59-1.5Zm-4.95,6.69c-4.02,7.17-7.52,8.87-13.35,6.46,4.83-7.01,6.83-7.98,13.35-6.46Zm-7.22-6.86c-2.76,4.25-3.68,4.47-8.95,2.99-.09-.45-.17-.89-.26-1.34,2.79-.5,5.58-1,9.21-1.65Zm-6.12,7.19c-2.68,6.59-5.91,8.13-13.44,6.4,5.5-7.74,8.46-9.2,13.44-6.4Zm-7.94-7.19l.78,2.35c-2.45,.6-4.89,1.2-7.34,1.8-.2-.69-.4-1.38-.6-2.07,2.39-.69,4.78-1.39,7.16-2.08Zm-5.4,6.62c-2.3,6.34-5.54,8.34-11.37,6.56,3.26-3.85,5.37-8.48,11.37-6.56Zm-6.49-5.53c-1.03,1.47-1.93,2.75-2.82,4.03h0c-1.94-.64-3.88-1.29-5.79-1.93q1.93-3.59,8.61-2.1Zm-16.01,4.7c-4.09,3.75-5.32,8.8-11.1,8.94,1.13-4.74,5.53-8.72,11.1-8.94Zm-30.4,11.94c.21,.83,.42,1.66,.63,2.49-1.81,.83-3.64,2.41-5.43,2.37-14.82-.34-29.64-.98-44.46-1.53,0-.51,0-1.01,0-1.52,16.42-.6,32.84-1.2,49.26-1.8Zm-41.66,40.17c-2.03-3.43-1.29-5.36,2.61-5.73,3.47-.33,6.99-.07,10.49-.07-.02-.38-.05-.77-.07-1.15-2.41-1.09-5.71-1.56-7.01-3.43-1.56-2.23-1.38-5.65-2.04-8.54-.61-2.7-1.34-5.37-2.29-9.15,10.67-.29,21.16-.58,31.66-.87-.01-.73-.02-1.46-.03-2.19h-34.17c.03-.82,.06-1.64,.09-2.46,12.44,.62,24.88,1.24,37.83,1.88-9.08,11-17.99,22.16-27.42,32.87-3.95,4.49-6.74,3.74-9.65-1.17Zm18.06,15.29c-2.84-2.48-5.68-4.96-9.31-8.12,9.15,.28,11.28,2.47,9.31,8.12Zm-26.6-37.46c.74-.22,2.02-.77,2.14-.59,.63,1.01,1.56,2.33,1.32,3.29-.79,3.23-2.02,6.35-3.08,9.52-.78-.3-1.57-.6-2.35-.9,1.11-2.72,2.21-5.44,3.2-7.86l-1.23-3.45ZM62.79,274.92c-.92,2.12-3.41,4.74-.44,7.39,.07,.06-1.18,1.58-2.33,3.11-.4,.07-1.8,.32-4.78,.85,1.61-4.53,2.96-8.3,4.41-12.37-.61-.12-1.7-.32-4.51-.86,2.63-1.78,4.48-3.91,5.57-3.58,2.14,.65,3.37,2.5,2.08,5.45Zm21.99,37.29c-5.81-2.55-11.63-5.11-17.15-7.53-.91-2.72,4.78-4.24,1.34-7.16,5.57,4.41,11.14,8.83,16.7,13.24-.3,.48-.6,.96-.9,1.45Zm22.31,13.36c-2.6-1.43-2.62-4.5-2.33-7.74l4.05,6.67-1.72,1.07Zm77.1-.29l-8.08-8.75-1.02,.82c1.93,2.96,3.87,5.92,5.76,8.83-1.16-.24-2.53-.41-3.82-.82-1.37-.44-2.66-1.12-4.65-1.98,.61,1.25,.99,2.01,1.21,2.47-1.99,.17-4.18,.3-6.35,.56-4.14,.48-8.26,1.03-12.4,1.55-.21-.44-.42-.89-.63-1.33,2.88-3.11,5.75-6.21,8.63-9.32l-1.1-1.28c-3.59,2.56-7.18,5.13-11.26,8.05,.19-11.86,3.84-21.7,10.68-30.43-1.83,3.68-3.65,7.36-5.48,11.04,4.47-1.54,6.53-5.09,8.38-9.01,1.26-2.68,3.1-5.08,4.68-7.61-.27-.77-.54-1.53-1.34-3.82,4.41,3.98,7.77,7.01,11.66,10.52h-4.51c-1.23,.44-2.46,.89-3.87,1.4,1.09,1.49,2.5,3.42,4.48,6.12-1.42,.73-2.74,1.41-2.88,1.49,4.53,7.36,8.68,14.09,12.82,20.82-.31,.22-.61,.45-.92,.67Zm17.65-16.26c-.61,.67-.78,1.75-.78,1.74-2.12,.29-3.66,.5-5.18,.71-.92-3.97-.64-4.37,5.29-4.84-3.66-4.2-6.46-7.94-9.8-11.12-4.52-4.3-7.47-9.13-7.59-15.5-.01-.78-.33-1.65-.77-2.31-5.82-8.85-13.03-16.34-21.92-22.16-.46-.3-1.17-.21-2.34,.52,3.99,3.7,7.97,7.39,12.08,11.19-4,2.28-7.04,1.92-10.42-.51-2.11-1.52-5.13-1.8-8.56-2.91,2.19,7.66,14.16,9.18,10.47,19.75-6.3-5.04-11.95-9.56-17.61-14.08-.56,.59-1.13,1.18-1.69,1.77,2.48,2.85,4.93,5.74,7.46,8.55,2,2.22,4.32,4.19,6.07,6.58,.92,1.26,.93,3.18,.72,5.07-13.27-8.46-21.71-23.17-37.99-26.54-.28,.44-.56,.89-.85,1.33,3.05,1.7,6.09,3.43,9.16,5.09,10.75,5.82,17.82,15.16,24.13,25.2,.59,.94,.47,2.59,.15,3.77-.92,3.48-2.1,6.9-3.55,11.51-8.69-20.86-22.57-35.85-41.56-45.85-.35,.35-.7,.69-1.05,1.04,5.9,5.1,11.52,10.59,17.78,15.2,8.21,6.06,13.31,14.29,17.69,23.09,.93,1.86,.28,4.51,.35,6.79-1.91-.8-3.89-1.45-5.71-2.42-4.74-2.52-6.99-7.17-9.91-11.36-4.16-5.97-8.99-11.49-13.66-17.09-1.05-1.26-2.64-2.07-3.98-3.09-.36,.35-.72,.71-1.08,1.06,2.47,3.13,5.08,6.16,7.37,9.42,3.99,5.69,7.97,11.4,11.53,17.36,.86,1.45,.07,3.88,.03,5.86-1.59-.3-3.24-1.05-4.74-.82-5.46,.85-5.1-4.11-7.08-6.72-5.3-6.99-10.53-14.05-15.91-20.99-1.05-1.36-2.66-2.28-4.02-3.4-.37,.31-.74,.62-1.1,.93,2.53,3.39,5.15,6.71,7.55,10.18,3.48,5.03,6.97,10.06,10.1,15.31,.86,1.44,.43,3.66-.08,5.71-9.56-10.26-19.75-19.03-31.33-26.08-.38,.41-.76,.82-1.14,1.24,5.8,5.8,11.59,11.61,17.39,17.41-.22,.49-.44,.97-.66,1.46-1.31,.13-2.95,.82-3.89,.29-7.76-4.33-15.39-8.89-23.78-13.8,1.87-.91,2.86-1.37,3.84-1.87,4.81-2.46,5.8-5.89,3.91-11.76-1.25-3.89-4.19-7.95,.06-11.71-.26-.51-.34-.94-.57-1.07-8.83-4.85-8.88-6.09-.59-11.62,16.73-11.17,33.42-22.4,50.18-33.52,4.37-2.9,8.97-5.46,13.46-8.18,.38,.54,.77,1.08,1.15,1.62-6.01,4.6-12.03,9.19-18.04,13.79l.26,.81c2.95-1.35,6.19-2.28,8.78-4.12,5.07-3.61,9.45-8.53,17.01-5.88-.05-.51-.1-1.03-.14-1.54-1.67-.37-3.34-.73-5-1.1l-.53-1.36c3.44-1.52,6.86-3.11,10.33-4.55,5.39-2.23,10.74-4.59,16.25-6.5,12.36-4.3,24.81-8.37,37.23-12.51,5.71-1.9,15.9-1.7,19.14,1.57-9.62,1-19.24,2-28.87,3,.02,.55,.05,1.11,.07,1.66,8.8-.4,17.61-.79,26.52-1.2-2.74,17.35-4.37,16.48,4.36,25.1-5.15,2.4-9.38,4.37-15.26,.4-4.61-3.11-10.99-3.6-17.05-4.37,.87,.81,1.75,1.62,1.78,1.65-3.75-.9-8.52-2.04-13.29-3.19-.1,.43-.19,.86-.29,1.29,5.72,2.42,11.5,4.71,17.14,7.3,5.5,2.53,10.85,5.37,16.61,8.25-.2-1.27-.5-3.19-.87-5.58,3.15,1.13,6.24,2.25,9.34,3.36,.2-.3,.4-.6,.6-.9-.67-.94-1.33-1.88-2-2.82l.37-.8c6.07,3.07,12.15,6.14,18.22,9.21-.21,.49-.42,.98-.63,1.47-1.41-.35-2.82-.7-4.23-1.05-.23,.34-.45,.67-.68,1.01,4.16,3.12,8.32,6.25,13.36,10.02-5.47,1.9-9.09,1.55-12.82-1.59-5.11-4.29-10.67-8.03-16.04-12.01l-1.4,1.72c4.8,3.77,9.6,7.53,14.39,11.3-.23,.62-.47,1.25-.7,1.87-4.65-.42-9.56-.07-13.88-1.49-4.17-1.37-7.74-4.57-11.57-6.97-.34,.46-.69,.93-1.03,1.39,1.52,1.22,2.96,2.56,4.58,3.65,5.96,4.02,6.33,7.06,1.21,13.32-5.79-4.19-10.98-7.58-10.91-16.79,.05-6.43-4.37-13.35-10.02-18.2-.89,.55-1.39,.71-1.68,1.06-1.24,1.51-2.98,4.57-3.53,4.37-2.65-.98-5.12-2.67-7.38-4.45-1.25-.98-1.85-2.74-2.96-3.95-.61-.66-2.33-1.39-2.43-1.25-3.9,5.24-8.48,.45-12.65,.95-.43,.05-.82,.35-2.28,1,3.05,1.09,5.26,1.94,7.5,2.66,2.27,.74,2.8,1.69,2.26,4.37-1.18,5.92-2.37,12.09-1.84,18,.31,3.46,3.45,7.11,6.2,9.77,2.28,2.21,6.16,2.7,8.75,4.7,2.74,2.13,4.8,5.14,7.15,7.77l1.49-1.01c-.69-1.41-1.13-3.03-2.12-4.18-2.49-2.89-5.3-5.5-7.85-8.34-4.36-4.87-3.9-6.16,2.43-7.96,2.32,2.78,4.57,5.49,7.7,9.24-3.34-1.37-5.68-2.33-8.01-3.29-.22,.29-.45,.57-.67,.86,3.69,3.24,7.4,6.46,11.05,9.74,2.96,2.66,5.72,5.55,8.78,8.08,6.23,5.15,4.64,11.65,3.78,19.46-12.66-10.72-20.37-25.46-35.17-31.98-.32,.3-.64,.61-.96,.91,.93,.88,1.86,1.75,2.77,2.64,6.51,6.37,13.06,12.69,19.5,19.13,3.4,3.4,6.43,7.18,9.94,10.45,6.02,5.61,6.4,11.05,.89,17.12Zm-14.77-73.04c.85-.25,2.36-.85,2.45-.69,.56,1.04,1.31,2.36,1.07,3.37-.73,3.06-1.89,6.03-2.87,9.03l-2.11-.7c.88-2.63,1.77-5.26,2.78-8.28-.26-.54-.79-1.64-1.31-2.73Zm-17.41-4.9l2.14-.92c.49,1.23,1.61,2.61,1.37,3.67-.74,3.16-2.01,6.2-3.07,9.29-.68-.23-1.36-.45-2.04-.68,.98-2.77,1.97-5.54,3.06-8.6-.32-.6-.88-1.68-1.45-2.76Zm34.88,39.01c-3.7-4.06-9.04-6.55-8.99-12.74,.01-1.63,.5-3.68,1.57-4.73,.62-.62,3,0,4.25,.68,1.56,.84,2.82,2.27,4.12,3.54,5.83,5.69,5.77,7.03-.94,13.26Zm27.69,46.67l-.23,.07c-.17-1.25-.35-2.51-.45-3.3-1.18,1.86-2.42,3.83-3.66,5.8-.82-2.32-1.88-4.59-2.42-6.98-.82-3.63,.41-8.82-6.04-7.69-1.45,.25-3.34,1.93-3.75,3.33-.68,2.31-.12,4.96-.5,7.41-.16,1.04-1.37,1.92-2.1,2.88-.71-.98-1.91-1.9-2.03-2.95-.3-2.59-.1-5.23-.1-7.86l-1.21-.07c-.16,2.78-.32,5.55-.48,8.33-.23-.01-.47-.03-.7-.04,1.05-16.47,2.09-32.94,3.14-49.41,.57,0,1.14,.01,1.71,.02v15.05c.5,0,1,0,1.51-.01v-18.84h1.45v15.54c.43,.01,.87,.02,1.3,.03,.41-6.66,.81-13.32,1.22-19.98,.35,0,.7-.01,1.04-.02v43.49c.53,0,1.05,0,1.58,0v-43.36c.38-.03,.76-.06,1.14-.1,.38,3.21,.76,6.43,1.14,9.64l.5,.11c.26-1.26,.52-2.52,.77-3.78l.38-.04c.17,3.84,.34,7.69,.51,11.53,.28,.06,.56,.13,.84,.19,.42-.95,.83-1.9,1.85-4.21,.87,10.4,1.62,19.41,2.38,28.43,.22,0,.43,.02,.65,.03v-23.78h.55v40.53Zm18.27-1.78c-.07,1.5-1.85,2.93-2.83,4.39-1.25-1.62-3.33-3.12-3.58-4.87-.46-3.3-1.04-5.45-4.87-6.32-1.45-.33-3.14-3.3-3.25-5.15-.39-6.6-.15-13.24-.15-19.87l.78-.07c.35,6.03,.71,12.06,1.06,18.09l.94,.02c.53-5.43,1.06-10.87,1.58-16.3,.45,0,.89-.01,1.34-.02,.37,5.27,.74,10.54,1.12,15.81l1.4,.07v-16.16c.66,0,1.32,.02,1.98,.02,.39,5.41,.77,10.82,1.16,16.22,.6,0,1.2,0,1.79,0v-16.24c.5,0,.99-.02,1.49-.02,.25,.54,.72,1.08,.71,1.61-.15,9.6-.23,19.21-.68,28.79Zm.62-37.81c-.2,3.43-9.62,4.48-11.77,1.05-5.2-8.32-9.82-17-13.73-26.12,3.32,4.73,6.65,9.46,9.97,14.19,.47-.28,.94-.56,1.4-.83-2.16-4.35-4.31-8.71-6.47-13.06,.45-.27,.91-.55,1.36-.82,3.42,4.82,6.84,9.64,10.26,14.46,.5-.28,1.01-.55,1.51-.83-2.21-4.29-4.42-8.58-6.63-12.87,.41-.32,.82-.65,1.23-.97,3.57,4.89,7.14,9.78,10.71,14.66l1.43-.77c-2.2-4.3-4.41-8.6-6.61-12.89l1.5-.97c1.7,2.51,4.45,4.84,4.89,7.56,.98,5.98,1.27,12.18,.93,18.23Zm4.74,38.55h-.48v-73.46l.48-.05v73.51Zm3.24,6.74c4.44-.2,8.89-.4,13.67-.61-2,3.13-8.26,3.76-13.67,.61Zm21.57-.74c9.19,.64,17.96,1.25,26.74,1.87-12.2,2.2-24.32,1.31-26.74-1.87Zm72.73-28.85c-.12,6.8-.11,13.61-.3,20.41-.21,7.47-3.26,10.31-10.58,10.47-6.64,.15-13.29,.38-19.93,.8-3.67,.23-6.1-.45-6.55-4.75-.16-1.49-1.72-2.84-2.64-4.26-1.32,.93-2.58,1.95-3.96,2.76-1.06,.62-2.27,1.34-3.43,1.36-5.82,.09-11.65,.13-17.46-.12-4.4-.19-8.18-1.32-8.61-6.93-.09-1.13-2.27-2.1-3.49-3.15-.77,1.21-2.23,2.45-2.19,3.63,.15,4.32-2.21,5.53-5.87,5.62-.33,0-.67,.02-1,.03-8.9,.27-8.94,.27-8.9-8.75,.11-24.73,.25-49.47,.39-74.2,0-1.59,.19-3.18,.28-4.77,.72-.03,1.45-.06,2.17-.09v36.2c.84,0,1.69,.01,2.53,.02v-36.39c.79-.03,1.58-.06,2.38-.09,.47,5.19,.94,10.38,1.4,15.58,.25,.03,.5,.06,.75,.09,.6-4.9,1.21-9.8,1.81-14.7l1.55,.04c.35,4.86,.7,9.71,1.04,14.57,.5,0,.99,0,1.49,.01,.3-4.85,.61-9.71,.91-14.56l1.66-.09c.61,4.95,1.23,9.91,1.84,14.86l.72-.05c.47-4.78,.94-9.55,1.41-14.33,.48,0,.96,0,1.44,0,.46,5.11,.91,10.23,1.37,15.34,.63,0,1.26,.02,1.89,.03v-15.69c.75-.02,1.5-.04,2.25-.06,.45,4.86,.89,9.71,1.34,14.57,.62-.01,1.25-.02,1.87-.04v-14.57l2.3-.12c.46,4.96,.93,9.92,1.39,14.87l.81,.02c.57-4.91,1.15-9.82,1.84-15.7,3.18,6.19,2.29,15.05-1.16,18.69-.42,.45-.81,1.12-.85,1.72-.51,7.08-.95,14.16-.96,21.63,3.55-5.99,8.87-3.63,13.31-2.99,1.48,.21,2.45,3.91,3.69,6.07-.07,.1,.48-.34,.48-.77-.07-7.78-.04-15.57-.53-23.33-.07-1.04-2.78-2.71-4.29-2.72-4.3-.06-5.46-2.1-5.25-5.96,.2-3.76,.04-7.54,.04-11.32l2.05-.03,1.44,15.36c.43,.03,.86,.05,1.29,.08,.48-5.13,.96-10.26,1.44-15.39l1.73-.03c.27,4.86,.54,9.73,.8,14.59l1.53,.11c.35-4.95,.7-9.91,1.05-14.86l1.63,.03,1.54,14.79,1.04,.07c.35-4.96,.7-9.93,1.06-14.89l2.02-.02c.38,4.91,.75,9.83,1.13,14.74l1.21,.1c.44-5.14,.88-10.29,1.33-15.43,.52-.03,1.03-.06,1.55-.09,.34,5.45,.69,10.91,1.03,16.36h2.11v-16.48l2.38-.02c.44,4.94,.89,9.88,1.33,14.82,.3,.01,.59,.03,.89,.04,.55-4.89,1.1-9.78,1.65-14.66,.59-.02,1.18-.05,1.77-.07,.23,5.12,.46,10.24,.7,15.36,.57,.02,1.14,.03,1.71,.05l.9-15.48c.55-.01,1.1-.02,1.65-.03,.56,5.21,1.12,10.43,1.69,15.64,.27,.02,.54,.04,.81,.07,.5-5.26,1-10.53,1.49-15.79,.67,.02,1.35,.04,2.02,.05,.46,10.04,.92,20.08,1.38,30.11,.41,0,.81,.02,1.22,.03,.36-10.08,.72-20.17,1.08-30.25,.72-.03,1.43-.07,2.15-.1,.3,1.73,.87,3.47,.85,5.2-.29,19.06-.68,38.12-1.02,57.19Zm-100.34-66.88c-1.28,0-2.56-.25-5.26-.53,16.23-20.97,31.83-41.09,49.78-59.21,.47,.39,.95,.77,1.42,1.16-5.57,6.81-11.14,13.63-16.71,20.44,.25,.28,.5,.56,.75,.85,3.3-2.25,6.6-4.5,9.9-6.76,.35,.45,.7,.9,1.06,1.35-.81,1.68-1.62,3.36-2.42,5.03,4.71-2.43,9.26-4.79,13.58-7.01-.3-.14-1.63-.77-3.41-1.62,2.92-3.81,5.31-7.69,10.83-7.51,1.61,.05,3.24-.51,4.86-.8-4.57,5.46-8.94,11.11-13.83,16.28-1.7,1.8-4.61,3.03-7.13,3.37-4.24,.58-8.63,.5-12.93,.25-5.09-.3-7.31,2.53-9.05,6.98,3.39-1.95,6.38-3.67,9.37-5.39,.34,.42,.69,.84,1.03,1.27-.48,1.27-.96,2.54-1.45,3.81,6.94-8.18,16.03-2.61,24.37-4.65-.24,1.77-.4,2.9-.65,4.76,2.75-1.99,4.94-3.59,8.37-6.07-4.17-.38-7.32-.67-10.65-.97,4.98-7.94,6.71-8.94,13.01-7.63l-2.47,4.93q15.48-6.01,16.85-4.14c4.27-.58,8.03-1.09,12.64-1.72-1.28,2.22-2.13,3.69-2.98,5.17,8.58-7.57,18.78-4.06,29.1-5.09-1.28,2.2-2.12,3.67-2.97,5.14l1.09,1.11c3.13-3.06,6.87-5.7,9.24-9.26,3.54-5.32,9.42-8.42,14.55-6.15-3.25,4.48-6.32,8.97-13,8.71,.89,.59,1.78,1.18,2.9,1.93-.55,1.33-1.13,2.71-1.71,4.08,4.68-3.46,9.22-6.49,15.27-5.73-1.44-.65-2.88-1.29-4.7-2.11,3.11-6.74,9.17-8.2,15.7-8.86-1.66-.62-3.32-1.24-5.26-1.96,2.41-4.35,6.84-1.97,10.12-3.09-1.02-.93-2.05-1.86-2.98-2.7,1.71-.3,3.7-.66,5.7-1.01l.02-.96c-.85-.27-1.7-.53-2.52-.78,4.5-1.71,9.27,.35,12.04,5.04-1.97,1.26-4.22,2.2-5.83,3.79-17.79,17.45-35.39,35.07-53.29,52.4-2.12,2.05-5.67,3.72-8.57,3.74-34.59,.25-69.19,.16-103.78,.14Zm138.6,22.25l-.1-.95c7.98-.35,15.95-.7,23.93-1.04,.06,.67,.13,1.33,.19,2h-24.02Zm18.71,19.78c.32-4.95,.65-9.89,.97-14.84,.63,.09,1.26,.18,1.88,.26,2.59,5.46,.58,10.14-2.85,14.58Zm-.02,.03s-.03,.03-.04,.05c-1.98,4.13-3.96,8.25-6.16,12.84-7.7-9.38-4.85-19.06-4.04-28.53,.73-.12,1.45-.23,2.18-.35,.56,4.69,1.12,9.38,1.68,14.07,.4,.01,.8,.02,1.2,.03,.27-4.51,.53-9.02,.8-13.53,.55-.07,1.1-.13,1.66-.2,.42,2.02,.89,4.02,1.23,6.05,.54,3.18,1,6.38,1.49,9.57Zm-13.11-3.69c-.7,.07-1.4,.15-2.1,.22-.42-3.94-.84-7.88-1.26-11.82l2.7-.28c.22,3.96,.43,7.92,.65,11.88Zm-2.53,7.23c-1.75-3.68-6.75-6.25-3.21-11.63,1.07,3.88,2.14,7.75,3.21,11.63Zm-3.96-1.28c2.52,5.72,5.15,11.39,7.47,17.19,.54,1.35,.43,3.29-.09,4.69-2.41,6.48-5.07,12.87-8.14,20.55v-42.16l.76-.28Zm1.42,53.88c3.62-8.6,7.03-16.67,11.04-26.2,4.45,9.51,8.19,17.51,12.25,26.2h-23.3Zm25.62,0c-2.23-5.13-4.46-10.26-6.69-15.39l.98-.43c2.38,5.08,4.76,10.16,7.14,15.25-.48,.19-.95,.39-1.43,.58Zm1.91-5.84l-.67,.26c-3.82-9.17-7.71-18.3-11.37-27.53-.53-1.34-.43-3.39,.22-4.67,3.63-7.06,7.53-13.99,11.81-21.84v53.78Zm2.78,.03c3.02-7.88,6.03-15.76,9.05-23.65,.32,.12,.64,.24,.96,.36-3.04,7.87-6.08,15.75-9.11,23.62-.3-.11-.6-.22-.9-.34Zm.34-10v-35.52c9.59,11.72,7.12,23.56,0,35.52Zm19.82,16.35c-5.89,.24-11.79,.13-18.91,.13,3.67-9.23,6.86-17.23,10.6-26.64,3.85,8.7,7.23,16.14,10.35,23.69,.25,.6-1.28,2.79-2.04,2.82Zm5.51-.91c-8.78-20.6-17.57-41.2-26.35-61.8l1.58-.67,25.63,62.09-.86,.38Zm-25.79-75.57l.03-.57h24.81c-.04,.19-.09,.38-.13,.57h-24.7Zm12.35,33.09c-4.17-10-7.91-18.99-11.66-27.98,.64-.26,1.28-.52,1.92-.78,.75,2.27,1.51,4.53,2.61,7.86,.72-2.94,1.21-4.93,1.7-6.93,.42,.01,.83,.02,1.25,.03,.29,3.75,.59,7.5,.88,11.24l.76,.06c.56-3.76,1.11-7.53,1.67-11.29,.55-.02,1.11-.04,1.66-.06,.35,4.16,.71,8.31,1.06,12.47,.42,.03,.85,.07,1.27,.1,.42-4.39,.83-8.78,1.25-13.17,.61,.11,1.22,.22,1.84,.33,4.02,10.01-1.18,18.3-6.2,28.12Zm15.63,36.87c-.39,.08-.78,.17-1.17,.25-3.71-9.62-7.45-19.22-11.06-28.87-.29-.78,.05-2,.46-2.83,3.54-7.08,7.17-14.11,10.77-21.15,.33,.06,.66,.12,1,.18v52.42Zm4.27-48.29c-.16-6.48-.06-12.96-.07-19.44,0-7.41-.2-7.57-7.43-7.53-16.63,.11-33.27,.17-49.9,.25-1.66,0-3.33,.12-4.99,0-3.94-.28-5.39,1.03-5.34,5.39,.26,24.08,.12,48.16-.31,72.31-.17-2.68-.34-5.35-.51-8.03l-1.47,.03c-.13,1.85-.49,3.71-.34,5.54,.35,4.24-1.74,5.69-5.65,5.5-3.16-.15-6.32-.21-9.48-.24-6.09-.06-6.09-.04-8.92-5.36-.67,1.41-1.21,2.55-2.24,4.72v-58.71h.24v20.32c.44,0,.88,.01,1.32,.02v-53.33l2.06-.02v26.7h2.05v-23.29l1.21-.05c.19,2.49,.38,4.98,.57,7.47,.48,.04,.97,.08,1.45,.12,.34-5.02,.68-10.05,1.05-15.49,.35,4.16,.66,7.88,.97,11.61,.48,.02,.97,.05,1.45,.07l.59-11.7,.8-.08c.22,2.91,.44,5.81,.65,8.72l1.11,.08c.47-5.07,.94-10.15,1.38-14.97,.3,3.5,.63,7.25,.95,11,.5-.03,1-.06,1.5-.09,.18-4.05,.36-8.1,.54-12.14,.19-.04,.38-.08,.58-.12,.34,3,.67,6.01,1.01,9.01,.29,.02,.59,.03,.88,.05,.49-4.92,.99-9.85,1.57-15.69,.21,4.56,.39,8.24,.56,11.91h1.73v-14.28c.36,0,.72,0,1.08,0,.38,3.71,.76,7.42,1.14,11.12,.3,0,.6,.02,.9,.03,.44-4.63,.89-9.27,1.33-13.9l.27-.04c.18,3.43,.36,6.86,.54,10.3,.58,.03,1.17,.06,1.75,.09,.21-4.52,.43-9.05,.64-13.57h.35c.38,3.4,.76,6.81,1.14,10.21,.31,.03,.62,.06,.94,.08,.42-4.71,.84-9.43,1.26-14.14h.69v11.01c.56,.03,1.11,.05,1.67,.08,.33-4.4,.67-8.81,1.09-14.34,.52,4.23,.91,7.36,1.3,10.49,.34-.02,.68-.05,1.02-.07,.3-4.38,.61-8.77,.91-13.15l.59-.04c.18,3.32,.37,6.64,.55,9.95h1.51c.33-4.65,.66-9.31,1.02-14.43,.38,3.86,.72,7.25,1.06,10.65,.44,.03,.87,.06,1.31,.08l.69-10.04c.26,0,.51,0,.77,.01,.23,2.29,.46,4.59,.7,6.88,.45,.02,.91,.04,1.36,.06,.34-4.72,.68-9.44,1.05-14.72,.35,3.99,.66,7.41,.96,10.82,.48,.02,.95,.05,1.43,.07,.22-3.88,.44-7.75,.67-11.63,.26-.05,.53-.1,.79-.15l.57,8.65c.39,.03,.78,.05,1.17,.08,.47-5.05,.95-10.09,1.42-15.11,.27,3.68,.54,7.39,.81,11.11l1.55-.05c.21-3.7,.42-7.4,.61-10.91,.36,4.76,.74,9.71,1.11,14.66,.45,0,.9-.01,1.35-.02,.17-2.69,.35-5.39,.62-9.55,.6,5.26,1.03,9.08,1.46,12.9,.27,0,.54,0,.81-.01l.66-4.64c.25-.04,.49-.08,.74-.13,.24,2.53,.48,5.06,.71,7.59l.75,.07c.34-1.44,.68-2.87,1.01-4.31l.64,.05,.66,7.41c.34,.02,.68,.04,1.02,.05,.33-2.47,.66-4.94,.99-7.41l.43-.03c.18,3.4,.36,6.81,.54,10.21,.45,.02,.89,.03,1.34,.05,.36-3.32,.72-6.63,1.08-9.95l.7-.04v12.95l1.61-.02c.23-3.64,.47-7.29,.71-11.02,.29,4.73,.58,9.4,.86,14.06,.52,0,1.04-.02,1.56-.03,.2-3.68,.4-7.36,.59-10.95,.37,4.82,.74,9.75,1.12,14.67,.45,0,.9-.02,1.35-.03l.52-8.08,.27-.03c.44,3.84,.88,7.68,1.32,11.52h.76c.27-1.67,.53-3.32,.8-4.97h.67c.21,2.52,.42,5.05,.63,7.59l.7,.13c.38-1.38,.76-2.76,1.52-5.48,.4,3.73,.66,6.18,.93,8.62l1.11,.06,.92-7.39h.7v10.11c.58,.06,1.15,.12,1.73,.19,.3-3.35,.6-6.71,.92-10.29,.22,4.58,.43,8.95,.64,13.32l1.72-.06c.2-3.69,.4-7.38,.61-11.08,.32,4.72,.63,9.45,.95,14.18,.52-.02,1.05-.03,1.57-.05,.16-3.71,.33-7.42,.49-11.14,.4,4.96,.81,9.93,1.21,14.9,.42-.02,.84-.03,1.26-.05v-7.67c.51,0,1.01-.02,1.52-.03v34.37c.52,0,1.04-.01,1.56-.02v-12.66c.24,0,.49,0,.73,0,0,6.97-.09,13.94,.03,20.9,.07,3.83-1.13,5.8-5.4,5.91-1.72,.04-3.68,1.72-5.01,3.13-2.18,2.31-3.94,5.01-5.88,7.54-.4-.19-.81-.37-1.21-.56-.32-5.07-.78-10.13-.91-15.2Zm24.99,48.8c-3.84,1.22-3.49,8.81-9.69,6.32-1.29-.52-2.96-.06-4.46-.08-6.5-.08-6.5-.29-7.16-6.61-.6-5.79-1.7-11.53-2.59-17.29l1.15-.17c.15,1.22,.29,2.45,.43,3.62,.31,.06,.47,.09,.62,.12,.3-5.15,.6-10.29,.9-15.44,.29,0,.57-.02,.86-.03,.35,2.64,.7,5.27,1.05,7.91l.99-.03c.27-3.94,.54-7.88,.8-11.82,.37,.01,.75,.02,1.12,.03,.23,3.16,.47,6.31,.7,9.47,.33,0,.66-.02,.99-.02v-12.2c.47,0,.93-.01,1.4-.02v35.9c.57,0,1.13,.01,1.7,.02v-34.26c.42-.03,.83-.06,1.25-.09,.23,1.36,.46,2.71,.73,4.26l2.23-1.69c.22,2.56,.42,4.8,.61,7.04l.65,.08c.29-1.28,.58-2.57,.86-3.85,1.48,7.89,3,15.77,4.43,23.67,.32,1.77,.79,5.05,.4,5.17Zm43.96,6.24c-3.4,0-6.51-.18-6.45-4.78,.02-1.66-.16-3.32-.06-4.98,.27-4.23-1.46-5.91-5.85-5.71-3.44,.16-4.61,1.15-4.52,4.69,.26,10.27,.12,10.24-10.01,9.48-3.94-.29-7.9-.39-12.03-1.41,1.2-.53,2.41-1.06,4.18-1.84-5.54-1.52-5.22-6.19-6-9.45-.96-4.01-.23-8.42,.75-12.72,.39,3.96,.78,7.91,1.17,11.87,.47,.01,.93,.03,1.4,.04l.72-9.58,1.47-.06c.43,3.12,.86,6.24,1.29,9.36h1.12c.37-3.09,.73-6.19,1.1-9.28,.48-.02,.96-.05,1.45-.07l1.01,9,.81,.15c.52-3,1.05-6,1.57-9l1.28-.14c.48,3,.97,6,1.45,9,.16,.04,.32,.08,.48,.12l1.36-9.22c.47,.02,.95,.04,1.42,.05,.55,3.11,1.09,6.21,1.64,9.32,.25-.02,.51-.03,.76-.05,.28-3.1,.55-6.2,.83-9.29,.44,0,.89-.02,1.33-.03,.49,2.24,.98,4.47,1.46,6.71,.32,.04,.64,.08,.96,.12,.47-2.29,.93-4.58,1.4-6.87,.42,.01,.85,.02,1.27,.03,.34,2.27,.67,4.53,1.01,6.8,.33,.04,.65,.09,.98,.13,.48-2.25,.96-4.49,1.44-6.74,.49-.04,.98-.08,1.47-.12,.33,3.13,.67,6.26,1,9.39l.66,.09c.46-3.16,.91-6.33,1.37-9.49l1.4-.03c.56,3.24,1.11,6.48,1.67,9.72l.74-.05c.24-3.17,.48-6.33,.72-9.5,.85,.1,1.42,.1,1.43,.19,.93,6.47,1.9,12.95,2.66,19.44,.45,3.88-2.05,4.73-5.33,4.73Zm42.37-2.22c-7.59,.67-14.62,1.32-21.66,1.92-3.33,.28-5.02-1.2-4.83-4.64,.06-.99-.03-1.99-.02-2.99,.09-7.6,.02-7.59-6.72-7.58-3.86,0-4.63-3.54-1.5-10.18,.46,3.43,.76,5.72,1.07,8.01,.35,.06,.69,.12,1.04,.19,.53-2.32,1.06-4.64,1.59-6.97l1.21-.09c.38,2.2,.75,4.41,1.34,7.85,.96-3.32,1.62-5.59,2.28-7.86l1.08,.02c.5,3.25,1,6.5,1.5,9.75l.7-.04c.31-3.22,.61-6.45,.92-9.67,.51-.01,1.02-.02,1.53-.03,.41,3.24,.82,6.47,1.22,9.71,.42,0,.85,0,1.27,.01,.26-3.21,.52-6.42,.78-9.62,.51-.01,1.01-.03,1.52-.04,.37,3.17,.75,6.35,1.12,9.52,.38,.03,.76,.06,1.14,.09,.42-3.2,.84-6.4,1.27-9.61,.48,0,.96,0,1.44,0,.33,3.15,.66,6.31,.98,9.46h.74c.54-3.13,1.07-6.24,1.61-9.36,.46-.01,.92-.03,1.39-.04l1.28,9.25c.26,.01,.52,.03,.78,.04,.28-3.14,.57-6.28,.85-9.42,.51,0,1.03-.01,1.54-.02,.5,3.12,1,6.24,1.49,9.36l1.03,.07c.22-2.91,.44-5.82,.66-8.73,1.45,11.24,.38,16.3-4.43,20.54,.77,.31,1.49,.59,2.79,1.11Zm16.7-12.79c5.57-2.5,11.14-5.01,17.55-7.89-1.69,4.61-9.62,8.03-17.55,7.89Zm17.13-10.41c-7.68,3.05-15.32,6.2-23.07,9.05-1.52,.56-3.48-.08-5.24-.17,1.05-1.44,1.79-3.53,3.22-4.22,8.84-4.33,17.84-8.35,27.29-12.7,.88,3.97,1.37,6.63-2.19,8.04Z"/><path class="b" d="M556.44,109.79c2.37,0,5.03-.38,5.19,3.02,.19,3.92,.04,7.85,.04,12.61h-16.45l.09,.59c7.08,1.15,14.16,2.31,21.11,3.44-.16-.44-.82-1.75-1.1-3.14-.7-3.55-1.62-7.13-1.72-10.72-.1-3.84,1.88-6.15,6.26-5.78,3.05,.26,6.13,.05,9.2,.05,0-.49,0-.98,0-1.47h-11.89c.16-7.43,6.27-9.54,10.58-12.08,6.8-4,14.56-3.43,21.19,1.37,1.53,1.11,2.97,3.32,3.41,5.29,.66,.61,1.2,1.28,1.65,2,0-2.28,0-4.57,0-6.85-.46-.32-.92-.66-1.36-1.03-.44-.37-.86-.81-1.23-1.28-9.11-5.67-18.22-4.58-28.45-4.09,1.73,.94,2.35,1.28,3.35,1.83-3.75,2-7.27,3.89-10.6,5.67,.04,.82,.46,2.06,.07,2.95-1.85,4.22-4.42,6.75-9.86,6.29-7.72-.65-15.54-.17-23.32-.17,0,.5,.02,1.01,.02,1.51,7.94,0,15.88,.02,23.82-.01Z"/><path class="b" d="M269.6,192.03c-.07-.26,.02-.1,0,0h0Z"/><path class="b" d="M193.34,166.01c.42-2.57,1.68-5.38,1-7.61-.52-1.7-3.48-2.67-5.47-4.04,1.53-.12,3.5-.27,7-.54-3.07-.74-4.75-1.15-6.44-1.55l-.08-.75c2.09-.21,4.19-.41,6.28-.62v-.4h-7.81l-.09-1.09c4.08-.33,8.17-.66,12.25-.98l-.07-1.43c-3.34-.18-6.67-.36-10.01-.54l-.02-.78c.73-.17,1.53-.61,2.19-.46,8.05,1.85,14.51-2.13,19.63-7.02,3.07-2.93,5.76-2.43,8.88-2.82,5.39-.66,10.77-1.38,16.88-2.16-3.7-.72-6.67-1.31-9.65-1.89l.03-.83c1.55-.12,3.1-.27,4.66-.35,6.62-.33,13.26-.43,19.86-1.01,6.96-.62,11.96,1.86,14.97,8.72,1.68-1.89,3.09-3.46,4.49-5.04,19.82-22.21,55.63-23.48,77.04-2.95,1.9,1.82,5.09,2.94,7.79,3.16,5.73,.47,11.53,.14,17.28,.83-5.43,1.45-10.87,2.9-15.47,4.14l5.07,.51v.79l-4.91,.75v.33h11.37l.08,1.05c-3.55,.18-7.1,.36-10.59,.53,1.43,.32,2.92,.65,5.91,1.32-2.3,.77-3.12,1.21-3.98,1.3-3.9,.39-3.99,1.89-1.9,4.84,1.26,1.78,1.69,4.15,2,6.42q-5.38-7.79-16.82-3.98l-.75-1.11c2.3-1.35,4.46-3.32,6.94-3.9,4.46-1.05,4.32-3.21,2.52-6.38-7.17-12.66-18.52-19.15-32.45-21.56-21.37-3.7-38.41,3.92-51.93,20.36-.93,1.13-1.8,2.31-3.18,4.09-1.17-5.31-2.54-10.04-8.04-11.26-6.67-1.48-12.29,1.13-17.7,4.73,1.83,2.41,3.49,4.62,5.16,6.82l-.82,1.01c-9.35-9.56-20.07-8.56-30.79-3.86-11.01,4.82-16.63,14.21-19.01,25.82l-1.29-.6Z"/><path class="b" d="M469.06,136.39c-7.42,1.02-8.38,2.75-9.74,16.77-.41-2.78-.68-5.59-1.29-8.33-.41-1.83-1.3-3.54-1.97-5.31-1.88,1.07-4.05,1.85-5.55,3.31-1.04,1.02-1.16,2.99-1.31,3.4-5.22-1.03-10.18-2.76-15.16-2.82-6.29-.07-8.11,5.3-9.37,10.59l-1.48-.42c.65-3.06,1.3-6.12,2.1-9.85-4.29-.21-8.78-.43-13.27-.65,7.6-3.88,16.78,1.38,23.72-4.92,1.69,.76,3.31,1.48,4.93,2.21,3.36,1.52,6.36,3.33,9.02-1.65,.85-1.6,4.78-1.53,7.28-2.29,2.06-.62,4.5-.83,6.07-2.1,6.82-5.5,14.4-6.98,22.75-5.03,4.78,1.12,9.5,2.52,14.46,3.85-1.24,.34-2.58,.71-3.93,1.09l-.08,.83c5.54,.35,11.08,.71,16.62,1.06,0,.4-.02,.79-.03,1.19h-13.42l-.06,.89c3.87,.32,7.74,.63,11.61,.95l.02,1.28-11.65,.54v1.11h16.48c0,.55,0,1.11,.01,1.66h-17.21c2.21,3.28,3.95,5.85,5.7,8.43-.48,.54-.97,1.09-1.45,1.63-2.52-7.14-7.28-5.66-13.37-3.04,1.5-2.08,1.98-3.05,2.72-3.71,3.74-3.32,3.92-7.28,.39-11.05-4.09-4.38-15.53-6.33-21.03-3.39-.94,.5-1.36,1.99-2.49,3.76Z"/><path class="b" d="M226.6,112.69c-2.03-7.61-6.85-6.09-12.95-3.22,1.42-2.05,1.81-2.92,2.46-3.51,4.04-3.67,4.4-7.56,.53-11.3-5.95-5.75-13.18-5.74-20.51-3.59-6.63,1.95-10.72,6.59-11.8,13.43-.37,2.33,.32,4.82,.53,7.23l-1.34,.22c-.36-2.99-.67-5.98-1.1-8.96-.23-1.65-.64-3.26-.98-4.9-2.1,.72-4.63,.94-6.17,2.29-1.46,1.28-1.87,3.74-2.9,6.03-4.27-3.22-8.66-6.32-14.65-4.7-6.07,1.63-8.05,6.27-9.5,12.12-.02-8.79-6.94-4.88-10.73-6.52q.47-3.14,11.36-4.31c-5.34-.24-9.68-.44-14.02-.63l-.02-1.43c1.34-.16,2.67-.35,4.01-.48,6.73-.62,13.45-1.47,20.2-1.73,2.87-.11,5.92,.65,8.63,1.67,2.36,.89,3.68,1.13,5.39-1.23,1.23-1.71,3.76-3.75,5.51-3.58,4.96,.48,8.18-1.92,11.94-4.46,7.05-4.74,14.91-5.2,22.82-1.91,4.62,1.92,7.21,5.49,8.59,10.29,.66,2.29,2.44,4.23,3.61,6.39,.99,1.83,1.83,3.75,2.73,5.63l-1.64,1.16Z"/><path class="b" d="M141.36,124.13c8.34-3.63,9.76-3.24,14.73,3.67,3.44-.55,6.83-1.55,10.22-1.54,9.75,.03,16.91,9.58,14.42,18.98-.78,2.94-2.23,5.49-5.63,5.52,1.17-3.04,3.19-5.92,3.14-8.76-.06-3.04-1.36-6.65-3.35-8.95-6.29-7.26-13.59-4.86-20.66-.88-3.29-8.92-6.01-9.77-13.19-3.74-1.2-1.94-2.33-3.85-3.54-5.71-5.71-8.77-15.74-12.84-25.45-10.34-10.23,2.63-17.07,10.62-17.84,20.85-.49,6.5,.78,7.92,7.29,8.06,3.18,.06,6.36,.01,9.54,.01l.03,1.66c-4.62,.31-9.23,.63-14.2,.97l1.21,5.47c-2.87-2.54-5.5-4.87-7.73-6.85,.5-2.21,1.6-4.81,1.6-7.41,0-11.63,6.67-21.2,17.8-24.98,10.22-3.48,22.11,.52,28.68,9.65,.96,1.34,1.84,2.73,2.93,4.34Z"/><path class="b" d="M104.77,163.26c-.86-1.23-2.16-3.75-4.1-5.6-.94-.89-3.22-.98-4.6-.53-.68,.22-.88,2.46-1,3.81-.25,2.67-.29,5.36-.42,8.05l-1.38-.03c0-1.79,.19-3.61-.03-5.38-.9-7.19-5.01-11.86-11.88-13.8-7.14-2.02-14.24-2.09-20.12,3.36-4.19,3.89-3.85,7.83,.52,11.57,.59,.5,1,1.21,1.57,2.64-5.34-2.04-10.4-3.55-12.67,3.88l-1.32-1.08c.98-1.93,1.48-4.61,3.05-5.61,2.6-1.66,3.22-3.57,3.62-6.37,.94-6.48,5.92-10.76,13.62-11.83,7.71-1.07,14.87,.27,20.83,5.84,1,.93,2.56,2.07,3.7,1.91,5.57-.75,9.86,.72,12.03,6.08,15.82-5.12,25.23-.41,23.09,12.48-1.74-6.07-3.36-11.87-9.56-12.1-4.77-.18-9.61,1.66-14.96,2.71Z"/><path class="b" d="M400.33,91.09c.82-6.32,4.61-10.51,9.77-11.89,4.47-1.2,7.55,.84,10.44,4.05,1.05,1.17,3.22,1.82,4.89,1.83,4.11,.04,8.24-.68,12.34-.55,1.86,.06,3.64,1.53,5.52,2.16,2.59,.88,5.25,1.58,8.35,2.49-.94,.41-1.7,.74-2.55,1.11,4.39,7.58,8.62,15.24,4.18,24.46,0-1.69,0-3.39,0-5.08,.01-6.98-1.89-13.21-7.77-17.48-1.69-1.23-3.96-1.94-6.06-2.23-2.73-.38-5.54-.09-8.41-1.27,2.13-.21,4.25-.43,6.38-.65-4.48-1.98-10.62-1.94-15.74,1.5-4.5,3.02-8.2,7.23-12.25,10.91,.28-4.61,3.63-7.54,6.75-10.7,1.12-1.14,2.64-3.58,2.19-4.24-1.07-1.59-3.38-3.65-4.84-3.41-3.2,.54-6.32,2.14-9.17,3.8-1.43,.84-2.22,2.77-4.03,5.18Z"/><path class="b" d="M576.13,171.15c5.22-5.65,5.57-9.34,1.22-12.88-5.86-4.75-11.59-2.92-17.62,5.37-.44-3.11,.13-7.31-1.69-9.68-1.84-2.4-6.04-2.99-8.92-4.25,2.45-2.59,8.38-2.22,11.15,2.21,2.12,3.4,4,3,7.27,2.27,3.01-.67,6.53-.12,9.58,.74,3.49,.99,6.92,2.6,9.96,4.58,1.59,1.04,2.27,3.46,3.37,5.25l-1.23,.61c-1.4-1.12-2.79-2.25-4.19-3.37-.89,1.66-1.59,3.46-2.71,4.94-1.52,2-3.36,3.76-5.06,5.63-.38-.47-.75-.95-1.13-1.42Z"/><path class="b" d="M535.28,96.9c-3.45-1.1-6.79-2.17-11.51-3.68-2.37-3.71-6.65-5.57-11.24-4.04-4.69,1.56,.01,4.92-1.71,7.48-.76-1.01-1.44-1.83-2.03-2.7-5.04-7.45-12.68-9.33-20.9-5.57-2.53,1.16-5.54,1.29-8.41,1.47,8.45-6.53,17.57-7.27,26.34-2.93,1.39,.69,3.49,.59,5.05,.15,4.99-1.42,9.41-1.17,13.39,2.63,1.05,1,2.82,1.41,4.33,1.74,3.35,.72,6.28,1.72,6.7,5.46Z"/><path class="b" d="M287.51,62.68c-4.51-12.84-9.02-25.67-13.52-38.51l1.82-.63c4.5,12.87,8.99,25.75,13.49,38.62l-1.78,.52Z"/><path class="b" d="M338.83,149.21c-2.97-10.02-8.56-16.55-20.11-16.55,3.7-2.45,8.76-1.79,13.36,1.31,5.4,3.64,7.29,8.87,6.75,15.24Z"/><path class="b" d="M309.65,4.8v29.7l-.77,.04V4.82l.77-.03Z"/><path class="b" d="M312.93,92.8c1.75-11.3,3.51-22.6,5.26-33.9l1.5,.22c-1.61,11.36-3.22,22.73-4.83,34.09l-1.94-.42Z"/><path class="b" d="M252.5,117.33l28.78,1.74-.09,1.93c-9.56-.55-19.12-1.1-28.68-1.65,0-.67,0-1.34,0-2.02Z"/><path class="b" d="M345.37,118.38c9.45-.78,18.89-1.55,28.34-2.33l.14,1.73c-9.42,.86-18.84,1.72-28.26,2.57-.07-.66-.15-1.32-.22-1.97Z"/><path class="b" d="M287.08,103.77c-6.39-5.76-12.79-11.52-19.18-17.28l1.25-1.38c6.48,5.72,12.95,11.45,19.43,17.17l-1.49,1.5Z"/><path class="b" d="M326.23,98.19c6.19-7.85,12.37-15.7,18.56-23.55l1.31,1c-6.12,7.94-12.25,15.88-18.37,23.82l-1.5-1.27Z"/><path class="b" d="M375.49,94.13c-7.99,3.52-15.98,7.04-23.97,10.56-.27-.59-.54-1.19-.81-1.78,8-3.53,16-7.06,24-10.59l.78,1.81Z"/><path class="b" d="M350.81,85.24c-6.33,6.05-12.66,12.1-18.98,18.15l-1.2-1.24c6.35-6.03,12.69-12.06,19.04-18.09,.38,.39,.76,.79,1.15,1.18Z"/><path class="b" d="M283.02,76.81c-4.08-7.47-8.16-14.93-12.24-22.4l1.68-.91c4.13,7.46,8.26,14.92,12.39,22.39l-1.83,.92Z"/><path class="b" d="M364.75,108.75c-9.04,2.44-18.09,4.89-27.13,7.33l-.46-1.73,27.21-7.04,.38,1.43Z"/><path class="b" d="M259.9,102.44c-7.71-3.31-15.42-6.61-23.13-9.92l.73-1.72c7.74,3.26,15.47,6.51,23.21,9.77-.27,.62-.54,1.25-.82,1.87Z"/><path class="b" d="M324.85,90.61c3.87-7.17,7.74-14.35,11.61-21.52l1.64,.87c-3.82,7.19-7.64,14.39-11.45,21.58l-1.8-.92Z"/><path class="b" d="M562.72,134.41h-13.67l-.12-.8c4.24-1.25,8.48-2.51,12.87-3.8,.37,1.85,.61,3.03,.92,4.6Z"/><path class="b" d="M309.82,68.26v17.29h-1.14v-17.29h1.14Z"/><path class="b" d="M88.83,182.11h22.25l.04,.92h-22.17l-.11-.92Z"/><path class="b" d="M327.66,68.69c-2.78,8.54-5.56,17.08-8.34,25.62l-1.62-.52c2.82-8.54,5.64-17.09,8.47-25.63l1.49,.53Z"/><path class="b" d="M119.6,152.01h15.28l.05,.88h-15.28l-.05-.88Z"/><path class="b" d="M333.16,105.65l18.55-11.94,.9,1.39c-6.14,4.06-12.28,8.12-18.42,12.18l-1.04-1.63Z"/><path class="b" d="M382.76,88.55c5.64-2.5,11.29-4.99,16.93-7.49l.68,1.5c-5.57,2.65-11.14,5.3-16.71,7.95l-.9-1.97Z"/><path class="b" d="M340.2,61.44c2.71-5.05,5.43-10.1,8.14-15.15l1.51,.78-7.8,15.43c-.61-.35-1.23-.71-1.84-1.06Z"/><path class="b" d="M298.55,95.12c-1.63-4.82-3.27-9.64-4.9-14.46l1.77-.61c1.72,4.84,3.44,9.67,5.17,14.51l-2.03,.56Z"/><path class="b" d="M377.66,115.4l16.55-1.38,.15,1.55c-5.52,.63-11.03,1.26-16.55,1.89l-.15-2.06Z"/><path class="b" d="M272.58,19.59l-6.61-19.05,1.61-.54,6.65,19.04-1.65,.56Z"/><path class="b" d="M268.94,50.79c-2.79-5.08-5.57-10.16-8.36-15.23l1.46-.81c2.85,5.09,5.69,10.18,8.54,15.27l-1.65,.77Z"/><path class="b" d="M443.35,126.34h-14.23v-.99h14.23v.99Z"/><path d="M224.62,187.3v-1.52"/><path d="M273.88,183.97c.21,.83,.42,1.66,.63,2.49"/><path d="M582.63,309.99c5.57-2.5,11.14-5.01,17.55-7.89"/><path d="M583.43,249.01c-.06-.03,.46-1.97,1.07-2.27"/><path class="b" d="M15.08,299.23c4.03,.7,8.06,1.39,12.08,2.09l-.35,2.18-11.99-2.31,.26-1.97Z"/><path class="b" d="M31.33,291.5c3.79,1.11,7.58,2.22,11.38,3.34l-.65,2.23c-3.74-1.17-7.49-2.33-11.23-3.5l.5-2.07Z"/><path class="b" d="M115.52,238.59c-9.65,7.07-19.3,14.14-29.49,21.61,1.86,.44,3.06,.73,4.25,1.02l.07,.7c-3.68,.41-7.36,.83-12.52,1.41,12.2-9.86,23.95-18.61,36.33-26.49l1.36,1.75Z"/><path class="b" d="M89.13,266.47c8.48,1.74,13.62,5.67,12.88,11.33-4.9-3.67-9.29-6.96-13.68-10.25l.8-1.08Z"/><path class="b" d="M178.88,215.4c-5.54-.43-10.43-.81-15.42-1.2,2.06-4.48,9.83-4.05,15.42,1.2Z"/><path class="b" d="M158.2,243.61c-3.85-1.42-7.7-2.85-11.55-4.27l.59-1.87c3.92,1.2,7.85,2.4,11.77,3.59-.27,.85-.54,1.7-.81,2.54Z"/><path class="b" d="M134.98,255.1c3.64,1.49,7.29,2.98,10.93,4.48l-.91,2.2c-3.6-1.51-7.21-3.02-10.81-4.53l.79-2.14Z"/><path class="b" d="M153.6,228.29l11.81,3.7-.66,2.18c-3.92-1.22-7.84-2.45-11.76-3.67,.2-.74,.41-1.47,.61-2.21Z"/><path class="b" d="M138.34,270.23c-3.43-1.69-6.86-3.38-10.29-5.07l.81-1.85c3.5,1.52,7.01,3.05,10.51,4.57l-1.03,2.34Z"/><path class="b" d="M151.53,252.67c-3.71-1.49-7.42-2.99-11.12-4.48,.23-.64,.46-1.28,.7-1.92,3.76,1.35,7.51,2.7,11.27,4.05l-.84,2.36Z"/><path class="b" d="M95.32,258.87c2.36-1.24,4.72-2.49,7.09-3.73l.7,.93c-.95,1.1-1.9,2.2-2.9,3.35,1.33,.32,2.61,.63,3.89,.94l-.21,1.25c-2.84-.36-5.68-.72-8.51-1.08l-.05-1.65Z"/><path class="b" d="M88.05,276.98l-9.21-6.37,1.06-1.63c3.21,1.97,6.42,3.93,9.63,5.9l-1.48,2.1Z"/><path class="b" d="M289.41,265.01v-9.76c2.54,6.82,1.64,10.21-2.76,14.46-.89,.86-1.01,2.66-1.17,4.07-.34,3.02-.47,6.06-.69,9.09-.5-.02-1-.05-1.49-.07,0-2.92-.03-5.85,0-8.77,.04-2.93-1.02-4.78-4.27-4.87-3.36-.09-4.22,1.79-4.24,4.75-.04,7.14-.19,14.29-.36,21.43-.04,1.56-.33,3.11-1.65,4.68-.17-1.34-.49-2.67-.5-4.01-.06-13.79,.07-27.58-.16-41.37-.08-4.63,1.68-5.99,6.17-5.92,10.53,.17,10.53-.02,10.5,10.61,0,1.83,0,3.65,0,5.48l.6,.2Z"/><path class="b" d="M334.63,258.7c0,10.33-4.53,13.49-14.5,9.86-1.05-.38-2.09-1.99-2.32-3.19-.41-2.07-.35-4.28-.21-6.41,.84-12.49-.15-9.92,10.37-10.09,6.27-.1,6.57,.39,6.65,6.87,.01,.99,0,1.98,0,2.97Z"/><path class="b" d="M311.82,287.68v21.78c-.41,0-.83-.01-1.24-.02v-21.81l1.24,.05Z"/><path class="b" d="M338.92,288.6v18.4h-1.25v-18.47l1.25,.06Z"/><path class="b" d="M261.96,291.04v-15.72l1.24,.03v15.79c-.41-.03-.82-.07-1.24-.1Z"/><path class="b" d="M350.26,290.44v14.79h-1.19v-14.78c.4,0,.79,0,1.19-.01Z"/><path class="b" d="M350.26,268.55v14.74l-1.18,.02v-14.74c.39,0,.79,0,1.18-.01Z"/><path class="b" d="M342.97,267.29v-14.59c.42,0,.83-.01,1.25-.02v14.6c-.42,0-.83,0-1.25,0Z"/><path class="b" d="M261.86,313.38v-10.11h1.26v10.1l-1.26,.02Z"/><path class="b" d="M420.82,232.31c-8.95-.14-15.98-7.51-15.76-16.54,.22-8.71,7.26-15.21,16.47-15.2,8.75,.01,15.76,7.28,15.49,16.09-.27,8.74-7.55,15.78-16.2,15.65Zm1.37-7.21c1.35-3.51-.35-8.06,5.11-8.59l-14.81-1.19c7.12-.98,10.24,2.23,9.7,9.77Z"/><path class="b" d="M390.53,239.44h60.31v1.92c-20.07,.28-40.16,.15-60.25-.08l-.05-1.84Z"/><path class="b" d="M367.28,249.42v24.57h-1.21v-24.46c.4-.04,.81-.07,1.21-.11Z"/><path class="b" d="M386.09,286.22v17.83h-1.18v-17.91l1.18,.08Z"/><path class="b" d="M374.78,241.37v18.78l-1.14,.02v-18.78c.38,0,.76-.01,1.14-.02Z"/><path class="b" d="M359.44,311.22v-16.54l1.09-.02v16.53l-1.09,.02Z"/><path class="b" d="M380.44,248.5v-13.87h1.18v13.86c-.39,0-.79,0-1.18,.01Z"/><path class="b" d="M381.74,270.63v13.71h-1.24v-13.64c.41-.02,.83-.05,1.24-.07Z"/><path class="b" d="M367.26,284.54v11.83c-.34,0-.67,0-1.01,0v-11.83h1.01Z"/><path class="b" d="M373.47,278.39v-10l1.24-.03v10l-1.24,.04Z"/><path class="b" d="M374.45,204.25h-85.38l-.13-1.76c2.63-.14,5.28-.11,7.87-.48,2.52-.36,4.97-1.12,7.9-1.82,3.49,2.86,20.27,2.83,25.8-.49,3.7,3.5,20.55,3.57,25.8,.1,3.11,3.34,8.13,3.31,12.26,.61,2.08,1.41,3.94,2.66,5.8,3.92l.09-.09Z"/><path class="b" d="M354.46,223.21h-81.09c4.27-3.26,77.36-2.77,81.09,0Z"/><path class="b" d="M407.32,171.36c1.67-1.66,3.34-3.31,5.01-4.97,1.96-1.31,3.92-2.63,5.87-3.94l1.13,1.2c-2.37,2.98-4.42,6.3-7.16,8.9-12.97,12.35-26.11,24.53-39.23,36.71-1.31,1.22-2.95,2.08-4.44,3.11l-.23-.23c2.06-2.63,4.12-5.25,6.18-7.88l-.09,.09c3.68-3.69,7.36-7.39,11.04-11.08l-.06,.08c3.66-3.67,7.32-7.34,10.98-11.02,3.66-3.65,7.33-7.31,10.99-10.96Z"/><path class="b" d="M363.24,215.35c-19.89-.04-39.77-.08-59.66-.1-5.47,0-10.94,.17-16.41,.12-1.7-.01-3.4-.48-5.1-.74v-1.36c1.51-.1,3.02-.3,4.52-.3,23.4,0,46.79-.05,70.19,.11,2.26,.01,4.51,1.26,6.76,1.94l-.31,.33Z"/><path class="b" d="M356.02,193.65c-3.94,0-7.93-.39-11.8,.11-3.55,.46-6.98,1.89-10.61,2.94l.2-2.8c-2.69-.22-5.28-.43-7.86-.63,0-.48,0-.96,0-1.44,9.97-1.15,19.97-.78,29.97,.14,.03,.56,.06,1.12,.09,1.68Z"/><path class="b" d="M285.07,204.04h-15.76c.98-2.53,1.44-4.95,4.9-2.47,.88,.63,2.53,.22,3.82,.24,2.36,.02,4.72,0,7.07,0l-.03,2.23Z"/><path class="b" d="M385.4,193.26c-4.09,.99-8.19,1.97-12.37,2.98,0,.18,0-.95,0-2.23l-5.69-.9c4.16-2.89,13.84-2.63,18.01,.23l.06-.08Z"/><path class="b" d="M270.33,223.04h-14.2v-1.42h14.21c0,.47,0,.95,0,1.42Z"/><path class="b" d="M264.76,213.37h13.22v1.21h-13.22v-1.21Z"/><path class="b" d="M363.55,215.01c1.58-.96,3.15-1.92,4.73-2.88l.23,.23c-2.76,3.24-5.52,6.48-8.28,9.72-.48-.41-.95-.81-1.43-1.22,1.48-1.84,2.97-3.68,4.45-5.52l.31-.33Z"/><path class="b" d="M257.85,200.66h-11.77l-.02-1.1h11.83c-.02,.37-.03,.73-.05,1.1Z"/><path class="b" d="M240.22,208.03h11.16l-.02,1.1h-11.21l.07-1.1Z"/><path class="b" d="M403.86,321.75v-15.92l1.09,.04v15.96c-.36-.03-.73-.05-1.09-.08Z"/></svg>