<svg width="84" height="170" viewBox="0 0 84 170" fill="none" xmlns="http://www.w3.org/2000/svg">
<path fill-rule="evenodd" clip-rule="evenodd" d="M42 0.0272631C20.3274 0.816342 3 18.6347 3 40.5C3 45.4477 3.8872 50.1881 5.5112 54.571L38.4451 166.188C38.8325 167.501 39.7282 168.365 40.7828 168.776C38.7709 169.562 36.1837 168.692 35.4451 166.188L2.5112 54.571C0.887204 50.1881 0 45.4477 0 40.5C0 18.1325 18.1325 0 40.5 0C41.0022 0 41.5022 0.00914014 42 0.0272631ZM42 52.9176C48.7499 52.1714 54 46.4488 54 39.5C54 32.5512 48.7499 26.8286 42 26.0824C42.4925 26.028 42.993 26 43.5 26C50.9558 26 57 32.0442 57 39.5C57 46.9558 50.9558 53 43.5 53C42.993 53 42.4925 52.972 42 52.9176Z" fill="#F03442"/>
<mask id="path-2-inside-1_450_76" fill="white">
<path fill-rule="evenodd" clip-rule="evenodd" d="M82.8796 50C83.612 46.9529 84 43.7718 84 40.5C84 18.1325 65.8675 0 43.5 0C21.1325 0 3 18.1325 3 40.5C3 45.4477 3.8872 50.1881 5.5112 54.571L38.4451 166.188C39.5614 169.972 44.9007 170.026 46.0941 166.267L82.9999 50H82.8796ZM57 39.5C57 46.9558 50.9558 53 43.5 53C36.0442 53 30 46.9558 30 39.5C30 32.0442 36.0442 26 43.5 26C50.9558 26 57 32.0442 57 39.5ZM64.7617 20.6777C64.6994 20.6491 64.6377 20.6176 64.5769 20.5833C63.3739 19.9057 62.948 18.3812 63.6257 17.1782C64.3033 15.9752 65.8278 15.5493 67.0308 16.2269C69.6447 17.6993 72.9125 20.6275 74.8972 24.6751C76.4294 27.8001 76.5669 30.6132 76.7068 33.4785L76.7069 33.4789C76.7398 34.1528 76.7729 34.8295 76.8242 35.5139C76.8933 36.0328 76.8006 36.5776 76.5239 37.0688C75.8463 38.2718 74.3217 38.6976 73.1187 38.02C72.3954 37.6125 71.953 36.8989 71.8625 36.133C71.7752 35.4484 71.7498 34.674 71.7225 33.8419C71.6511 31.6618 71.5667 29.0854 70.3202 26.6878C69.0942 24.3297 66.6127 22.2383 65.0747 20.942C64.9653 20.8498 64.8607 20.7617 64.7617 20.6777ZM77.5315 47.9098C76.7421 49.0426 75.1839 49.321 74.0511 48.5316C72.9183 47.7422 72.6399 46.184 73.4293 45.0512C74.2187 43.9184 75.7769 43.64 76.9097 44.4294C78.0425 45.2188 78.3209 46.777 77.5315 47.9098Z"/>
</mask>
<path fill-rule="evenodd" clip-rule="evenodd" d="M82.8796 50C83.612 46.9529 84 43.7718 84 40.5C84 18.1325 65.8675 0 43.5 0C21.1325 0 3 18.1325 3 40.5C3 45.4477 3.8872 50.1881 5.5112 54.571L38.4451 166.188C39.5614 169.972 44.9007 170.026 46.0941 166.267L82.9999 50H82.8796ZM57 39.5C57 46.9558 50.9558 53 43.5 53C36.0442 53 30 46.9558 30 39.5C30 32.0442 36.0442 26 43.5 26C50.9558 26 57 32.0442 57 39.5ZM64.7617 20.6777C64.6994 20.6491 64.6377 20.6176 64.5769 20.5833C63.3739 19.9057 62.948 18.3812 63.6257 17.1782C64.3033 15.9752 65.8278 15.5493 67.0308 16.2269C69.6447 17.6993 72.9125 20.6275 74.8972 24.6751C76.4294 27.8001 76.5669 30.6132 76.7068 33.4785L76.7069 33.4789C76.7398 34.1528 76.7729 34.8295 76.8242 35.5139C76.8933 36.0328 76.8006 36.5776 76.5239 37.0688C75.8463 38.2718 74.3217 38.6976 73.1187 38.02C72.3954 37.6125 71.953 36.8989 71.8625 36.133C71.7752 35.4484 71.7498 34.674 71.7225 33.8419C71.6511 31.6618 71.5667 29.0854 70.3202 26.6878C69.0942 24.3297 66.6127 22.2383 65.0747 20.942C64.9653 20.8498 64.8607 20.7617 64.7617 20.6777ZM77.5315 47.9098C76.7421 49.0426 75.1839 49.321 74.0511 48.5316C72.9183 47.7422 72.6399 46.184 73.4293 45.0512C74.2187 43.9184 75.7769 43.64 76.9097 44.4294C78.0425 45.2188 78.3209 46.777 77.5315 47.9098Z" fill="#FF4B64"/>
<path d="M82.8796 50L80.935 49.5326L80.3419 52H82.8796V50ZM5.5112 54.571L7.42944 54.005L7.41021 53.9398L7.3866 53.8761L5.5112 54.571ZM38.4451 166.188L36.5269 166.754L36.5269 166.754L38.4451 166.188ZM46.0941 166.267L48.0004 166.872L48.0004 166.872L46.0941 166.267ZM82.9999 50L84.9062 50.6051L85.7331 48H82.9999V50ZM64.5769 20.5833L65.5585 18.8408L65.5585 18.8408L64.5769 20.5833ZM64.7617 20.6777L66.0549 19.1521L65.8461 18.9751L65.5974 18.8607L64.7617 20.6777ZM63.6257 17.1782L65.3682 18.1598L65.3682 18.1598L63.6257 17.1782ZM67.0308 16.2269L66.0493 17.9695L66.0493 17.9695L67.0308 16.2269ZM74.8972 24.6751L76.6929 23.7946L76.6929 23.7946L74.8972 24.6751ZM76.7068 33.4785L74.7092 33.5761L74.71 33.5917L74.711 33.6073L76.7068 33.4785ZM76.7069 33.4789L78.7045 33.3813L78.7037 33.3657L78.7027 33.3501L76.7069 33.4789ZM76.8242 35.5139L74.8299 35.6636L74.8342 35.7208L74.8417 35.7777L76.8242 35.5139ZM76.5239 37.0688L74.7813 36.0872L74.7813 36.0872L76.5239 37.0688ZM73.1187 38.02L72.1372 39.7626L72.1372 39.7626L73.1187 38.02ZM71.8625 36.133L73.8487 35.8985L73.8476 35.8891L73.8464 35.8798L71.8625 36.133ZM71.7225 33.8419L73.7214 33.7764L73.7214 33.7764L71.7225 33.8419ZM70.3202 26.6878L68.5457 27.6104L68.5457 27.6104L70.3202 26.6878ZM65.0747 20.942L66.3636 19.4127L66.3636 19.4127L65.0747 20.942ZM74.0511 48.5316L75.1946 46.8907L75.1946 46.8907L74.0511 48.5316ZM77.5315 47.9098L75.8906 46.7664L75.8906 46.7664L77.5315 47.9098ZM73.4293 45.0512L71.7884 43.9077L71.7884 43.9077L73.4293 45.0512ZM76.9097 44.4294L78.0532 42.7885L78.0532 42.7885L76.9097 44.4294ZM82 40.5C82 43.6132 81.6309 46.6375 80.935 49.5326L84.8242 50.4674C85.5932 47.2684 86 43.9304 86 40.5H82ZM43.5 2C64.763 2 82 19.237 82 40.5H86C86 17.0279 66.9721 -2 43.5 -2V2ZM5 40.5C5 19.237 22.237 2 43.5 2V-2C20.0279 -2 1 17.0279 1 40.5H5ZM7.3866 53.8761C5.84378 49.7123 5 45.207 5 40.5H1C1 45.6884 1.93063 50.6639 3.6358 55.2659L7.3866 53.8761ZM40.3633 165.622L7.42944 54.005L3.59296 55.137L36.5269 166.754L40.3633 165.622ZM44.1879 165.661C43.5911 167.541 40.9215 167.514 40.3633 165.622L36.5269 166.754C38.2014 172.43 46.2102 172.511 48.0004 166.872L44.1879 165.661ZM81.0936 49.3949L44.1879 165.661L48.0004 166.872L84.9062 50.6051L81.0936 49.3949ZM82.8796 52H82.9999V48H82.8796V52ZM43.5 55C52.0604 55 59 48.0604 59 39.5H55C55 45.8513 49.8513 51 43.5 51V55ZM28 39.5C28 48.0604 34.9396 55 43.5 55V51C37.1487 51 32 45.8513 32 39.5H28ZM43.5 24C34.9396 24 28 30.9396 28 39.5H32C32 33.1487 37.1487 28 43.5 28V24ZM59 39.5C59 30.9396 52.0604 24 43.5 24V28C49.8513 28 55 33.1487 55 39.5H59ZM63.5953 22.3259C63.7038 22.387 63.8141 22.4433 63.926 22.4948L65.5974 18.8607C65.5847 18.8548 65.5717 18.8482 65.5585 18.8408L63.5953 22.3259ZM61.8831 16.1966C60.6634 18.362 61.4299 21.1062 63.5953 22.3259L65.5585 18.8408C65.3179 18.7053 65.2327 18.4003 65.3682 18.1598L61.8831 16.1966ZM68.0124 14.4844C65.847 13.2646 63.1028 14.0312 61.8831 16.1966L65.3682 18.1598C65.5037 17.9192 65.8087 17.834 66.0493 17.9695L68.0124 14.4844ZM76.6929 23.7946C74.509 19.3406 70.934 16.1301 68.0124 14.4844L66.0493 17.9695C68.3553 19.2685 71.316 21.9144 73.1014 25.5556L76.6929 23.7946ZM78.7045 33.3809C78.565 30.527 78.4268 27.3307 76.6929 23.7946L73.1014 25.5556C74.4321 28.2695 74.5687 30.6994 74.7092 33.5761L78.7045 33.3809ZM78.7027 33.3501L78.7027 33.3498L74.711 33.6073L74.711 33.6076L78.7027 33.3501ZM78.8186 35.3641C78.7695 34.7101 78.7376 34.0593 78.7045 33.3813L74.7093 33.5765C74.742 34.2463 74.7762 34.9489 74.8299 35.6636L78.8186 35.3641ZM78.2665 38.0503C78.7634 37.1682 78.9311 36.1842 78.8068 35.2501L74.8417 35.7777C74.8555 35.8813 74.8378 35.987 74.7813 36.0872L78.2665 38.0503ZM72.1372 39.7626C74.3025 40.9823 77.0467 40.2157 78.2665 38.0503L74.7813 36.0872C74.6458 36.3278 74.3409 36.413 74.1003 36.2774L72.1372 39.7626ZM69.8763 36.3676C70.0385 37.7404 70.8339 39.0284 72.1372 39.7626L74.1003 36.2774C73.9569 36.1967 73.8675 36.0574 73.8487 35.8985L69.8763 36.3676ZM69.7236 33.9074C69.75 34.714 69.7769 35.5895 69.8786 36.3863L73.8464 35.8798C73.7734 35.3073 73.7495 34.6341 73.7214 33.7764L69.7236 33.9074ZM68.5457 27.6104C69.553 29.5479 69.6505 31.6756 69.7236 33.9074L73.7214 33.7764C73.6517 31.6481 73.5804 28.6229 72.0947 25.7653L68.5457 27.6104ZM63.7858 22.4712C65.3943 23.827 67.5359 25.6682 68.5457 27.6104L72.0947 25.7653C70.6525 22.9913 67.8312 20.6496 66.3636 19.4127L63.7858 22.4712ZM63.4685 22.2034C63.5701 22.2895 63.6769 22.3795 63.7858 22.4713L66.3636 19.4127C66.2538 19.3201 66.1514 19.2339 66.0549 19.1521L63.4685 22.2034ZM72.9076 50.1725C74.9467 51.5934 77.7515 51.0923 79.1724 49.0533L75.8906 46.7664C75.7328 46.9929 75.4211 47.0486 75.1946 46.8907L72.9076 50.1725ZM71.7884 43.9077C70.3675 45.9468 70.8686 48.7516 72.9076 50.1725L75.1946 46.8907C74.968 46.7328 74.9123 46.4212 75.0702 46.1946L71.7884 43.9077ZM78.0532 42.7885C76.0142 41.3676 73.2093 41.8687 71.7884 43.9077L75.0702 46.1946C75.2281 45.9681 75.5397 45.9124 75.7663 46.0703L78.0532 42.7885ZM79.1724 49.0533C80.5933 47.0142 80.0922 44.2094 78.0532 42.7885L75.7663 46.0703C75.9928 46.2282 76.0485 46.5398 75.8906 46.7664L79.1724 49.0533Z" fill="#5B2815" mask="url(#path-2-inside-1_450_76)"/>
<mask id="path-4-inside-2_450_76" fill="white">
<path fill-rule="evenodd" clip-rule="evenodd" d="M42 0.0272631C41.5022 0.00914014 41.0022 0 40.5 0C18.1325 0 0 18.1325 0 40.5C0 45.4477 0.887204 50.1881 2.5112 54.571L35.4451 166.188C36.1837 168.692 38.7709 169.562 40.7828 168.776C42.7676 169.55 45.3148 168.722 46.0941 166.267L82.9999 50H82.8796C83.612 46.9529 84 43.7718 84 40.5C84 18.1325 65.8675 0 43.5 0C42.9978 0 42.4978 0.00914018 42 0.0272631ZM54 39.5C54 46.4488 48.7499 52.1714 42 52.9176C35.2501 52.1714 30 46.4488 30 39.5C30 32.5512 35.2501 26.8286 42 26.0824C48.7499 26.8286 54 32.5512 54 39.5Z"/>
</mask>
<path d="M42 0.0272631L41.9272 2.02594L42 2.02859L42.0728 2.02594L42 0.0272631ZM2.5112 54.571L4.42944 54.005L4.41021 53.9398L4.3866 53.8761L2.5112 54.571ZM35.4451 166.188L33.5269 166.754L33.5269 166.754L35.4451 166.188ZM40.7828 168.776L41.5096 166.913L40.7822 166.629L40.0549 166.913L40.7828 168.776ZM46.0941 166.267L44.1879 165.661L44.1879 165.661L46.0941 166.267ZM82.9999 50L84.9062 50.6051L85.7331 48H82.9999V50ZM82.8796 50L80.935 49.5326L80.3419 52H82.8796V50ZM42 52.9176L41.7803 54.9055L42 54.9298L42.2198 54.9055L42 52.9176ZM42 26.0824L42.2198 24.0945L42 24.0702L41.7803 24.0945L42 26.0824ZM40.5 2C40.9779 2 41.4537 2.0087 41.9272 2.02594L42.0728 -1.97141C41.5508 -1.99042 41.0265 -2 40.5 -2V2ZM2 40.5C2 19.237 19.237 2 40.5 2V-2C17.0279 -2 -2 17.0279 -2 40.5H2ZM4.3866 53.8761C2.84378 49.7123 2 45.207 2 40.5H-2C-2 45.6884 -1.06937 50.6639 0.635804 55.2659L4.3866 53.8761ZM37.3633 165.622L4.42944 54.005L0.59296 55.137L33.5269 166.754L37.3633 165.622ZM40.0549 166.913C38.9692 167.338 37.722 166.838 37.3633 165.622L33.5269 166.754C34.6454 170.545 38.5726 171.787 41.5107 170.639L40.0549 166.913ZM44.1879 165.661C43.8089 166.855 42.5813 167.331 41.5096 166.913L40.0561 170.64C42.9538 171.77 46.8206 170.588 48.0004 166.872L44.1879 165.661ZM81.0936 49.3949L44.1879 165.661L48.0004 166.872L84.9062 50.6051L81.0936 49.3949ZM82.8796 52H82.9999V48H82.8796V52ZM82 40.5C82 43.6132 81.6309 46.6375 80.935 49.5326L84.8242 50.4674C85.5932 47.2684 86 43.9304 86 40.5H82ZM43.5 2C64.763 2 82 19.237 82 40.5H86C86 17.0279 66.9721 -2 43.5 -2V2ZM42.0728 2.02594C42.5463 2.0087 43.0221 2 43.5 2V-2C42.9735 -2 42.4492 -1.99042 41.9272 -1.97141L42.0728 2.02594ZM42.2198 54.9055C49.9718 54.0486 56 47.4796 56 39.5H52C52 45.418 47.5281 50.2943 41.7803 50.9297L42.2198 54.9055ZM28 39.5C28 47.4796 34.0282 54.0486 41.7803 54.9055L42.2198 50.9297C36.4719 50.2943 32 45.418 32 39.5H28ZM41.7803 24.0945C34.0282 24.9514 28 31.5204 28 39.5H32C32 33.582 36.4719 28.7057 42.2198 28.0703L41.7803 24.0945ZM56 39.5C56 31.5204 49.9718 24.9514 42.2198 24.0945L41.7803 28.0703C47.5281 28.7057 52 33.582 52 39.5H56Z" fill="#5B2815" mask="url(#path-4-inside-2_450_76)"/>
</svg>
