<?xml version="1.0" encoding="UTF-8"?><svg xmlns="http://www.w3.org/2000/svg" viewBox="0 0 131.32 125.62"><defs><style>.d{fill:#c2c4c4;}.e{fill:#e0e0e0;}</style></defs><g id="a"/><g id="b"><g id="c"><g><path class="e" d="M65.66,0V105.33c-.41,0-.81,.14-1.27,.44-1.68,1.1-3.43,2.08-5.16,3.11-8.68,5.19-17.36,10.39-26.06,15.57-2.63,1.57-5.3,1.62-7.8-.21-2.51-1.84-3.2-4.42-2.53-7.39,2.67-11.88,5.34-23.76,8.07-35.62,.24-1.01,.01-1.55-.71-2.19-8.69-7.59-17.33-15.23-26.05-22.79-1.95-1.69-3.63-3.46-4.15-6.08v-1.03c.11-.32,.26-.63,.32-.95,.59-2.75,2.79-4.99,5.57-5.32,3.81-.45,7.64-.74,11.46-1.08,4.2-.37,8.41-.71,12.61-1.1,4.2-.38,8.39-.89,12.6-1.15,1.38-.09,1.99-.58,2.5-1.8,4.65-11,9.37-21.96,14.03-32.95C60.33,1.87,62.44,.18,65.6,0h.06Z"/><path class="d" d="M131.32,49.14v1.03c-.57,2.05-1.48,3.84-3.18,5.24-2.47,2.04-4.84,4.2-7.25,6.32-6.62,5.8-13.23,11.61-19.86,17.41-.64,.56-.87,1.05-.66,1.97,2.75,11.95,5.44,23.9,8.13,35.86,.36,1.57,.32,3.14-.38,4.63-1.78,3.8-6.23,5.09-9.99,2.85-10.41-6.21-20.81-12.43-31.2-18.69-.46-.28-.87-.43-1.27-.43V0c2.82-.12,5.25,1.72,6.56,4.8,1.21,2.82,2.41,5.65,3.61,8.47,3.53,8.27,7.05,16.55,10.62,24.8,.24,.54,.81,1.24,1.31,1.32,2.06,.31,4.15,.41,6.23,.59,4.16,.36,8.32,.7,12.48,1.07,5.39,.49,10.77,1.04,16.17,1.49,4.11,.34,7.35,.95,8.53,6.38,.02,.08,.1,.14,.15,.21Z"/></g></g></g></svg>